light-display vv(13.5--61.0)-(80.5-100.0)-10.0-0.0-(0.0-0.0).ufo
<glyph name="be-cy.sc" format="1">
  <advance width="1230"/>
  <outline>
    <contour>
      <point x="666" y="-144" type="move" name="mark0"/>
    </contour>
    <contour>
      <point x="454" y="774" type="curve"/>
      <point x="454" y="1240" type="line"/>
      <point x="926" y="1233" type="line"/>
      <point x="983" y="1001" type="line"/>
      <point x="1091" y="1001" type="line"/>
      <point x="1072" y="1292" type="line"/>
      <point x="109" y="1292" type="line"/>
      <point x="109" y="1242" type="line"/>
      <point x="299" y="1228" type="line"/>
      <point x="299" y="66" type="line"/>
      <point x="107" y="52" type="line"/>
      <point x="107" y="0" type="line"/>
      <point x="382" y="0" type="line" smooth="yes"/>
      <point x="458" y="0"/>
      <point x="627" y="-14"/>
      <point x="670" y="-14" type="curve" smooth="yes"/>
      <point x="955" y="-14"/>
      <point x="1155" y="128"/>
      <point x="1155" y="415" type="curve" smooth="yes"/>
      <point x="1155" y="646"/>
      <point x="997" y="799"/>
      <point x="693" y="799" type="curve" smooth="yes"/>
      <point x="609" y="799"/>
      <point x="500" y="785"/>
    </contour>
    <contour>
      <point x="454" y="67" type="curve"/>
      <point x="454" y="704" type="line"/>
      <point x="490" y="713"/>
      <point x="576" y="717"/>
      <point x="652" y="717" type="curve" smooth="yes"/>
      <point x="861" y="717"/>
      <point x="989" y="619"/>
      <point x="989" y="407" type="curve" smooth="yes"/>
      <point x="989" y="152"/>
      <point x="863" y="51"/>
      <point x="652" y="51" type="curve" smooth="yes"/>
      <point x="541" y="51"/>
      <point x="505" y="61"/>
    </contour>
  </outline>
</glyph>
<glyph name="chedescender-cy.sc" format="1">
  <advance width="1265"/>
  <outline>
    <contour>
      <point x="1208" y="68" type="curve"/>
      <point x="996" y="68" type="line"/>
      <point x="996" y="1228" type="line"/>
      <point x="1162" y="1242" type="line"/>
      <point x="1162" y="1292" type="line"/>
      <point x="673" y="1292" type="line"/>
      <point x="673" y="1242" type="line"/>
      <point x="842" y="1227" type="line"/>
      <point x="842" y="657" type="line"/>
      <point x="789" y="630"/>
      <point x="653" y="601"/>
      <point x="556" y="601" type="curve" smooth="yes"/>
      <point x="316" y="601"/>
      <point x="290" y="655"/>
      <point x="290" y="969" type="curve" smooth="yes"/>
      <point x="290" y="1224" type="line"/>
      <point x="455" y="1242" type="line"/>
      <point x="455" y="1292" type="line"/>
      <point x="21" y="1292" type="line"/>
      <point x="21" y="1242" type="line"/>
      <point x="135" y="1225" type="line"/>
      <point x="135" y="928" type="line" smooth="yes"/>
      <point x="135" y="677"/>
      <point x="204" y="528"/>
      <point x="479" y="528" type="curve" smooth="yes"/>
      <point x="591" y="528"/>
      <point x="751" y="557"/>
      <point x="842" y="602" type="curve"/>
      <point x="842" y="68" type="line"/>
      <point x="652" y="52" type="line"/>
      <point x="652" y="0" type="line"/>
      <point x="1041" y="0" type="line"/>
      <point x="1043" y="9"/>
      <point x="1056" y="-267"/>
      <point x="1056" y="-292" type="curve"/>
      <point x="1160" y="-292" type="line"/>
      <point x="1175" y="-115"/>
      <point x="1192" y="-69"/>
    </contour>
  </outline>
</glyph>
<glyph name="chedescenderabkhasian-cy.sc" format="1">
  <advance width="1442"/>
  <outline>
    <contour>
      <point x="1322" y="46" type="curve"/>
      <point x="1330" y="279" type="line"/>
      <point x="1226" y="275" type="line"/>
      <point x="1190" y="114" type="line"/>
      <point x="1138" y="83"/>
      <point x="1049" y="50"/>
      <point x="883" y="50" type="curve" smooth="yes"/>
      <point x="615" y="50"/>
      <point x="470" y="348"/>
      <point x="470" y="656" type="curve"/>
      <point x="1348" y="654" type="line"/>
      <point x="1356" y="685"/>
      <point x="1358" y="711"/>
      <point x="1358" y="789" type="curve" smooth="yes"/>
      <point x="1358" y="1100"/>
      <point x="1170" y="1306"/>
      <point x="897" y="1306" type="curve" smooth="yes"/>
      <point x="585" y="1306"/>
      <point x="344" y="1052"/>
      <point x="316" y="703" type="curve"/>
      <point x="184" y="705"/>
      <point x="144" y="763"/>
      <point x="144" y="816" type="curve" smooth="yes"/>
      <point x="144" y="852"/>
      <point x="169" y="909"/>
      <point x="182" y="923" type="curve"/>
      <point x="57" y="943" type="line"/>
      <point x="36" y="931"/>
      <point x="6" y="850"/>
      <point x="6" y="833" type="curve" smooth="yes"/>
      <point x="6" y="705"/>
      <point x="147" y="648"/>
      <point x="312" y="644" type="curve"/>
      <point x="314" y="266"/>
      <point x="521" y="-19"/>
      <point x="845" y="-20" type="curve"/>
      <point x="864" y="-53"/>
      <point x="895" y="-121"/>
      <point x="895" y="-186" type="curve" smooth="yes"/>
      <point x="895" y="-291"/>
      <point x="845" y="-312"/>
      <point x="756" y="-312" type="curve" smooth="yes"/>
      <point x="739" y="-312"/>
      <point x="695" y="-305"/>
      <point x="672" y="-296" type="curve"/>
      <point x="670" y="-368" type="line"/>
      <point x="703" y="-378"/>
      <point x="760" y="-388"/>
      <point x="800" y="-388" type="curve" smooth="yes"/>
      <point x="938" y="-388"/>
      <point x="1020" y="-349"/>
      <point x="1025" y="-242" type="curve" smooth="yes"/>
      <point x="1029" y="-156"/>
      <point x="966" y="-54"/>
      <point x="928" y="-19" type="curve"/>
      <point x="1130" y="-10"/>
      <point x="1231" y="44"/>
    </contour>
    <contour>
      <point x="1188" y="703" type="curve"/>
      <point x="468" y="703" type="line"/>
      <point x="480" y="1108"/>
      <point x="665" y="1247"/>
      <point x="859" y="1247" type="curve" smooth="yes"/>
      <point x="1094" y="1247"/>
      <point x="1196" y="1034"/>
      <point x="1196" y="819" type="curve" smooth="yes"/>
      <point x="1196" y="777"/>
      <point x="1194" y="741"/>
    </contour>
  </outline>
</glyph>
<glyph name="chekhakassian-cy.sc" format="1">
  <advance width="1263"/>
  <outline>
    <contour>
      <point x="610" y="-144" type="move" name="mark0"/>
    </contour>
    <contour>
      <point x="801" y="0" type="curve"/>
      <point x="1164" y="0" type="line"/>
      <point x="1164" y="53" type="line"/>
      <point x="996" y="68" type="line"/>
      <point x="996" y="1228" type="line"/>
      <point x="1162" y="1242" type="line"/>
      <point x="1162" y="1292" type="line"/>
      <point x="673" y="1292" type="line"/>
      <point x="673" y="1242" type="line"/>
      <point x="842" y="1227" type="line"/>
      <point x="842" y="657" type="line"/>
      <point x="789" y="630"/>
      <point x="653" y="601"/>
      <point x="556" y="601" type="curve" smooth="yes"/>
      <point x="316" y="601"/>
      <point x="290" y="655"/>
      <point x="290" y="969" type="curve" smooth="yes"/>
      <point x="290" y="1224" type="line"/>
      <point x="455" y="1242" type="line"/>
      <point x="455" y="1292" type="line"/>
      <point x="21" y="1292" type="line"/>
      <point x="21" y="1242" type="line"/>
      <point x="135" y="1225" type="line"/>
      <point x="135" y="928" type="line" smooth="yes"/>
      <point x="135" y="677"/>
      <point x="204" y="528"/>
      <point x="479" y="528" type="curve" smooth="yes"/>
      <point x="591" y="528"/>
      <point x="751" y="557"/>
      <point x="842" y="602" type="curve"/>
      <point x="842" y="66" type="line"/>
      <point x="648" y="66" type="line"/>
      <point x="648" y="113"/>
      <point x="628" y="-320"/>
      <point x="628" y="-292" type="curve"/>
      <point x="731" y="-292" type="line"/>
      <point x="741" y="-255"/>
      <point x="798" y="22"/>
    </contour>
  </outline>
</glyph>
<glyph name="cheverticalstroke-cy.sc" format="1">
  <advance width="1259"/>
  <outline>
    <contour>
      <point x="613" y="-144" type="move" name="mark0"/>
    </contour>
    <contour>
      <point x="847" y="595" type="curve"/>
      <point x="847" y="63" type="line"/>
      <point x="657" y="52" type="line"/>
      <point x="657" y="0" type="line"/>
      <point x="1169" y="0" type="line"/>
      <point x="1169" y="53" type="line"/>
      <point x="1003" y="68" type="line"/>
      <point x="1003" y="1228" type="line"/>
      <point x="1169" y="1242" type="line"/>
      <point x="1169" y="1292" type="line"/>
      <point x="680" y="1292" type="line"/>
      <point x="680" y="1241" type="line"/>
      <point x="847" y="1226" type="line"/>
      <point x="847" y="656" type="line"/>
      <point x="803" y="631"/>
      <point x="708" y="606"/>
      <point x="619" y="599" type="curve"/>
      <point x="619" y="870" type="line"/>
      <point x="530" y="870" type="line"/>
      <point x="530" y="601" type="line"/>
      <point x="328" y="604"/>
      <point x="292" y="659"/>
      <point x="292" y="969" type="curve" smooth="yes"/>
      <point x="292" y="1224" type="line"/>
      <point x="457" y="1242" type="line"/>
      <point x="457" y="1292" type="line"/>
      <point x="21" y="1292" type="line"/>
      <point x="21" y="1242" type="line"/>
      <point x="139" y="1222" type="line"/>
      <point x="139" y="928" type="line" smooth="yes"/>
      <point x="139" y="666"/>
      <point x="213" y="528"/>
      <point x="482" y="528" type="curve" smooth="yes"/>
      <point x="496" y="528"/>
      <point x="513" y="528"/>
      <point x="530" y="530" type="curve"/>
      <point x="530" y="321" type="line"/>
      <point x="619" y="321" type="line"/>
      <point x="619" y="527" type="line"/>
      <point x="702" y="538"/>
      <point x="782" y="556"/>
    </contour>
  </outline>
</glyph>
<glyph name="de-cy.sc" format="1">
  <advance width="1341"/>
  <outline>
    <contour>
      <point x="1238" y="68" type="curve"/>
      <point x="1077" y="68" type="line"/>
      <point x="1077" y="1228" type="line"/>
      <point x="1250" y="1242" type="line"/>
      <point x="1250" y="1292" type="line"/>
      <point x="254" y="1292" type="line"/>
      <point x="254" y="1242" type="line"/>
      <point x="440" y="1228" type="line"/>
      <point x="440" y="1078" type="line" smooth="yes"/>
      <point x="440" y="423"/>
      <point x="259" y="116"/>
      <point x="202" y="68" type="curve"/>
      <point x="67" y="68" type="line"/>
      <point x="67" y="123"/>
      <point x="46" y="-315"/>
      <point x="46" y="-290" type="curve"/>
      <point x="148" y="-290" type="line"/>
      <point x="158" y="-272"/>
      <point x="216" y="13"/>
      <point x="220" y="0" type="curve"/>
      <point x="1072" y="0" type="line"/>
      <point x="1076" y="-1"/>
      <point x="1090" y="-279"/>
      <point x="1092" y="-292" type="curve"/>
      <point x="1194" y="-292" type="line"/>
      <point x="1196" y="-299"/>
      <point x="1238" y="132"/>
    </contour>
    <contour>
      <point x="542" y="1068" type="curve"/>
      <point x="542" y="1223" type="line"/>
      <point x="924" y="1223" type="line"/>
      <point x="922" y="68" type="line"/>
      <point x="344" y="68" type="line"/>
      <point x="399" y="126"/>
      <point x="544" y="496"/>
    </contour>
  </outline>
</glyph>
<glyph name="dje-cy.sc" format="1">
  <advance width="1514"/>
  <outline>
    <contour>
      <point x="614" y="-144" type="move" name="mark0"/>
    </contour>
    <contour>
      <point x="733" y="667" type="curve"/>
      <point x="733" y="1240" type="line"/>
      <point x="1116" y="1227" type="line"/>
      <point x="1150" y="892" type="line"/>
      <point x="1252" y="892" type="line"/>
      <point x="1256" y="1292" type="line"/>
      <point x="99" y="1292" type="line"/>
      <point x="75" y="892" type="line"/>
      <point x="181" y="892" type="line"/>
      <point x="230" y="1227" type="line"/>
      <point x="571" y="1240" type="line"/>
      <point x="571" y="66" type="line"/>
      <point x="330" y="52" type="line"/>
      <point x="330" y="0" type="line"/>
      <point x="926" y="0" type="line"/>
      <point x="926" y="52" type="line"/>
      <point x="733" y="63" type="line"/>
      <point x="733" y="620" type="line"/>
      <point x="826" y="661"/>
      <point x="906" y="670"/>
      <point x="1003" y="670" type="curve" smooth="yes"/>
      <point x="1215" y="670"/>
      <point x="1281" y="539"/>
      <point x="1281" y="311" type="curve" smooth="yes"/>
      <point x="1281" y="-62"/>
      <point x="1203" y="-269"/>
      <point x="1003" y="-269" type="curve" smooth="yes"/>
      <point x="970" y="-269"/>
      <point x="937" y="-271"/>
      <point x="924" y="-272" type="curve"/>
      <point x="926" y="-331" type="line"/>
      <point x="945" y="-340"/>
      <point x="1002" y="-337"/>
      <point x="1028" y="-337" type="curve" smooth="yes"/>
      <point x="1299" y="-337"/>
      <point x="1439" y="-36"/>
      <point x="1439" y="310" type="curve" smooth="yes"/>
      <point x="1439" y="509"/>
      <point x="1376" y="737"/>
      <point x="1041" y="737" type="curve" smooth="yes"/>
      <point x="969" y="737"/>
      <point x="807" y="721"/>
    </contour>
  </outline>
</glyph>
<glyph name="dzeabkhasian-cy.sc" format="1">
  <advance width="1182"/>
  <outline>
    <contour>
      <point x="577" y="720" type="curve"/>
      <point x="1024" y="1249" type="line"/>
      <point x="1024" y="1292" type="line"/>
      <point x="185" y="1292" type="line"/>
      <point x="204" y="1038" type="line"/>
      <point x="302" y="1038" type="line"/>
      <point x="331" y="1206" type="line"/>
      <point x="839" y="1212" type="line"/>
      <point x="836" y="1266"/>
      <point x="442" y="700"/>
      <point x="428" y="735" type="curve"/>
      <point x="450" y="687" type="line"/>
      <point x="475" y="685"/>
      <point x="502" y="685"/>
      <point x="526" y="685" type="curve"/>
      <point x="808" y="670"/>
      <point x="898" y="585"/>
      <point x="898" y="384" type="curve" smooth="yes"/>
      <point x="898" y="234"/>
      <point x="778" y="73"/>
      <point x="529" y="73" type="curve" smooth="yes"/>
      <point x="382" y="73"/>
      <point x="332" y="105"/>
      <point x="315" y="109" type="curve"/>
      <point x="276" y="296" type="line"/>
      <point x="185" y="296" type="line"/>
      <point x="151" y="42" type="line"/>
      <point x="198" y="38"/>
      <point x="312" y="-8"/>
      <point x="509" y="-8" type="curve" smooth="yes"/>
      <point x="843" y="-8"/>
      <point x="1066" y="132"/>
      <point x="1066" y="392" type="curve" smooth="yes"/>
      <point x="1066" y="633"/>
      <point x="936" y="727"/>
      <point x="687" y="727" type="curve" smooth="yes"/>
      <point x="647" y="727"/>
      <point x="613" y="725"/>
    </contour>
  </outline>
</glyph>
<glyph name="dzhe-cy.sc" format="1">
  <advance width="1473"/>
  <outline>
    <contour>
      <point x="834" y="0" type="curve"/>
      <point x="1370" y="0" type="line"/>
      <point x="1370" y="52" type="line"/>
      <point x="1206" y="66" type="line"/>
      <point x="1206" y="1228" type="line"/>
      <point x="1350" y="1242" type="line"/>
      <point x="1350" y="1292" type="line"/>
      <point x="898" y="1292" type="line"/>
      <point x="898" y="1242" type="line"/>
      <point x="1052" y="1228" type="line"/>
      <point x="1052" y="71" type="line"/>
      <point x="419" y="71" type="line"/>
      <point x="419" y="1228" type="line"/>
      <point x="594" y="1242" type="line"/>
      <point x="594" y="1292" type="line"/>
      <point x="113" y="1292" type="line"/>
      <point x="113" y="1242" type="line"/>
      <point x="267" y="1228" type="line"/>
      <point x="267" y="68" type="line"/>
      <point x="105" y="52" type="line"/>
      <point x="105" y="0" type="line"/>
      <point x="662" y="0" type="line"/>
      <point x="664" y="7"/>
      <point x="694" y="-332"/>
      <point x="694" y="-290" type="curve"/>
      <point x="804" y="-290" type="line"/>
      <point x="813" y="-184"/>
      <point x="824" y="-132"/>
    </contour>
  </outline>
</glyph>
<glyph name="e-cy.sc" format="1">
  <advance width="1213"/>
  <outline>
    <contour>
      <point x="721" y="0" type="move" name="mark0"/>
    </contour>
    <contour>
      <point x="1079" y="46" type="curve"/>
      <point x="1125" y="261" type="line"/>
      <point x="1031" y="273" type="line"/>
      <point x="955" y="114" type="line"/>
      <point x="905" y="72"/>
      <point x="850" y="49"/>
      <point x="705" y="49" type="curve" smooth="yes"/>
      <point x="423" y="49"/>
      <point x="282" y="335"/>
      <point x="267" y="633" type="curve"/>
      <point x="891" y="615" type="line"/>
      <point x="891" y="716" type="line"/>
      <point x="267" y="699" type="line"/>
      <point x="282" y="1024"/>
      <point x="461" y="1237"/>
      <point x="697" y="1237" type="curve" smooth="yes"/>
      <point x="848" y="1237"/>
      <point x="913" y="1211"/>
      <point x="955" y="1184" type="curve"/>
      <point x="998" y="999" type="line"/>
      <point x="1098" y="999" type="line"/>
      <point x="1109" y="1248" type="line"/>
      <point x="1037" y="1262"/>
      <point x="887" y="1306"/>
      <point x="720" y="1306" type="curve" smooth="yes"/>
      <point x="358" y="1306"/>
      <point x="80" y="1019"/>
      <point x="80" y="656" type="curve" smooth="yes"/>
      <point x="80" y="250"/>
      <point x="314" y="-20"/>
      <point x="700" y="-20" type="curve" smooth="yes"/>
      <point x="914" y="-20"/>
      <point x="984" y="43"/>
    </contour>
  </outline>
</glyph>
<glyph name="ef-cy.sc" format="1">
  <advance width="1369"/>
  <outline>
    <contour>
      <point x="683" y="-144" type="move" name="mark0"/>
    </contour>
    <contour>
      <point x="757" y="1118" type="curve"/>
      <point x="757" y="1257" type="line"/>
      <point x="937" y="1272" type="line"/>
      <point x="937" y="1326" type="line"/>
      <point x="431" y="1326" type="line"/>
      <point x="431" y="1272" type="line"/>
      <point x="612" y="1257" type="line"/>
      <point x="612" y="1119" type="line"/>
      <point x="257" y="1091"/>
      <point x="48" y="901"/>
      <point x="48" y="666" type="curve" smooth="yes"/>
      <point x="48" y="456"/>
      <point x="145" y="212"/>
      <point x="612" y="186" type="curve"/>
      <point x="612" y="40" type="line"/>
      <point x="431" y="16" type="line"/>
      <point x="431" y="-36" type="line"/>
      <point x="939" y="-36" type="line"/>
      <point x="939" y="12" type="line"/>
      <point x="757" y="39" type="line"/>
      <point x="757" y="189" type="line"/>
      <point x="1108" y="224"/>
      <point x="1321" y="433"/>
      <point x="1321" y="665" type="curve" smooth="yes"/>
      <point x="1321" y="884"/>
      <point x="1220" y="1097"/>
    </contour>
    <contour>
      <point x="612" y="1073" type="curve"/>
      <point x="612" y="241" type="line"/>
      <point x="286" y="259"/>
      <point x="223" y="484"/>
      <point x="223" y="677" type="curve" smooth="yes"/>
      <point x="223" y="856"/>
      <point x="296" y="1052"/>
    </contour>
    <contour>
      <point x="757" y="244" type="curve"/>
      <point x="757" y="1072" type="line"/>
      <point x="1090" y="1055"/>
      <point x="1143" y="847"/>
      <point x="1143" y="663" type="curve" smooth="yes"/>
      <point x="1143" y="458"/>
      <point x="1063" y="267"/>
    </contour>
  </outline>
</glyph>
<glyph name="eldescender-cy.sc" format="1">
  <advance width="1380"/>
  <outline>
    <contour>
      <point x="1299" y="68" type="curve"/>
      <point x="1084" y="68" type="line"/>
      <point x="1084" y="1228" type="line"/>
      <point x="1255" y="1242" type="line"/>
      <point x="1255" y="1292" type="line"/>
      <point x="242" y="1292" type="line"/>
      <point x="242" y="1242" type="line"/>
      <point x="445" y="1228" type="line"/>
      <point x="445" y="1027" type="line" smooth="yes"/>
      <point x="445" y="584"/>
      <point x="392" y="297"/>
      <point x="299" y="166" type="curve"/>
      <point x="270" y="130"/>
      <point x="238" y="106"/>
      <point x="192" y="106" type="curve" smooth="yes"/>
      <point x="120" y="106"/>
      <point x="78" y="111"/>
      <point x="57" y="115" type="curve"/>
      <point x="67" y="0" type="line"/>
      <point x="90" y="-2"/>
      <point x="135" y="-8"/>
      <point x="192" y="-8" type="curve" smooth="yes"/>
      <point x="277" y="-8"/>
      <point x="340" y="24"/>
      <point x="393" y="106" type="curve" smooth="yes"/>
      <point x="492" y="259"/>
      <point x="547" y="564"/>
      <point x="547" y="1033" type="curve" smooth="yes"/>
      <point x="547" y="1229" type="line"/>
      <point x="932" y="1229" type="line"/>
      <point x="930" y="68" type="line"/>
      <point x="744" y="52" type="line"/>
      <point x="744" y="0" type="line"/>
      <point x="1133" y="0" type="line"/>
      <point x="1135" y="9"/>
      <point x="1150" y="-261"/>
      <point x="1150" y="-292" type="curve"/>
      <point x="1252" y="-292" type="line"/>
      <point x="1253" y="-301"/>
      <point x="1299" y="116"/>
    </contour>
  </outline>
</glyph>
<glyph name="elhook-cy.sc" format="1">
  <advance width="1347"/>
  <outline>
    <contour>
      <point x="1084" y="478" type="curve" smooth="yes"/>
      <point x="1084" y="1228" type="line"/>
      <point x="1255" y="1242" type="line"/>
      <point x="1255" y="1292" type="line"/>
      <point x="242" y="1292" type="line"/>
      <point x="242" y="1242" type="line"/>
      <point x="445" y="1228" type="line"/>
      <point x="445" y="1027" type="line" smooth="yes"/>
      <point x="445" y="584"/>
      <point x="392" y="297"/>
      <point x="299" y="166" type="curve"/>
      <point x="270" y="130"/>
      <point x="238" y="106"/>
      <point x="192" y="106" type="curve" smooth="yes"/>
      <point x="120" y="106"/>
      <point x="78" y="111"/>
      <point x="57" y="115" type="curve"/>
      <point x="67" y="0" type="line"/>
      <point x="90" y="-2"/>
      <point x="135" y="-8"/>
      <point x="192" y="-8" type="curve" smooth="yes"/>
      <point x="277" y="-8"/>
      <point x="340" y="24"/>
      <point x="393" y="106" type="curve" smooth="yes"/>
      <point x="492" y="259"/>
      <point x="547" y="564"/>
      <point x="547" y="1033" type="curve" smooth="yes"/>
      <point x="547" y="1229" type="line"/>
      <point x="932" y="1229" type="line"/>
      <point x="928" y="500" type="line" smooth="yes"/>
      <point x="926" y="201"/>
      <point x="924" y="103"/>
      <point x="890" y="-16" type="curve" smooth="yes"/>
      <point x="850" y="-130"/>
      <point x="755" y="-212"/>
      <point x="649" y="-240" type="curve"/>
      <point x="690" y="-281" type="line"/>
      <point x="843" y="-262"/>
      <point x="1020" y="-176"/>
      <point x="1065" y="41" type="curve"/>
      <point x="1080" y="140"/>
      <point x="1084" y="286"/>
    </contour>
  </outline>
</glyph>
<glyph name="eltail-cy.sc" format="1">
  <advance width="1364"/>
  <outline>
    <contour>
      <point x="542" y="-144" type="move" name="mark0"/>
    </contour>
    <contour>
      <point x="1297" y="0" type="curve"/>
      <point x="1297" y="67" type="line"/>
      <point x="1084" y="67" type="line"/>
      <point x="1084" y="1228" type="line"/>
      <point x="1255" y="1242" type="line"/>
      <point x="1255" y="1292" type="line"/>
      <point x="242" y="1292" type="line"/>
      <point x="242" y="1242" type="line"/>
      <point x="445" y="1228" type="line"/>
      <point x="445" y="1027" type="line" smooth="yes"/>
      <point x="445" y="587"/>
      <point x="392" y="296"/>
      <point x="299" y="166" type="curve"/>
      <point x="270" y="125"/>
      <point x="234" y="107"/>
      <point x="192" y="107" type="curve" smooth="yes"/>
      <point x="116" y="107"/>
      <point x="78" y="111"/>
      <point x="57" y="117" type="curve"/>
      <point x="67" y="0" type="line"/>
      <point x="90" y="-2"/>
      <point x="135" y="-8"/>
      <point x="192" y="-8" type="curve" smooth="yes"/>
      <point x="278" y="-8"/>
      <point x="340" y="24"/>
      <point x="391" y="103" type="curve" smooth="yes"/>
      <point x="496" y="268"/>
      <point x="547" y="572"/>
      <point x="547" y="1033" type="curve" smooth="yes"/>
      <point x="547" y="1229" type="line"/>
      <point x="932" y="1229" type="line"/>
      <point x="932" y="68" type="line"/>
      <point x="744" y="52" type="line"/>
      <point x="744" y="0" type="line"/>
      <point x="1158" y="0" type="line"/>
      <point x="1154" y="5"/>
      <point x="1083" y="-331"/>
      <point x="1080" y="-290" type="curve"/>
      <point x="1188" y="-290" type="line"/>
      <point x="1191" y="-304"/>
      <point x="1294" y="43"/>
    </contour>
  </outline>
</glyph>
<glyph name="emtail-cy.sc" format="1">
  <advance width="1841"/>
  <outline>
    <contour>
      <point x="883" y="-144" type="move" name="mark0"/>
    </contour>
    <contour>
      <point x="1852" y="0" type="curve"/>
      <point x="1852" y="71" type="line"/>
      <point x="1660" y="71" type="line"/>
      <point x="1495" y="1228" type="line"/>
      <point x="1679" y="1242" type="line"/>
      <point x="1679" y="1292" type="line"/>
      <point x="1272" y="1292" type="line"/>
      <point x="981" y="365" type="line"/>
      <point x="925" y="115" type="line"/>
      <point x="866" y="365" type="line"/>
      <point x="556" y="1292" type="line"/>
      <point x="128" y="1292" type="line"/>
      <point x="128" y="1242" type="line"/>
      <point x="326" y="1228" type="line"/>
      <point x="177" y="68" type="line"/>
      <point x="20" y="52" type="line"/>
      <point x="20" y="0" type="line"/>
      <point x="483" y="0" type="line"/>
      <point x="483" y="52" type="line"/>
      <point x="308" y="68" type="line"/>
      <point x="390" y="884" type="line"/>
      <point x="424" y="1254" type="line"/>
      <point x="536" y="898" type="line"/>
      <point x="870" y="-14" type="line"/>
      <point x="948" y="-14" type="line"/>
      <point x="1287" y="1039" type="line"/>
      <point x="1352" y="1258" type="line"/>
      <point x="1399" y="884" type="line"/>
      <point x="1496" y="68" type="line"/>
      <point x="1333" y="52" type="line"/>
      <point x="1333" y="0" type="line"/>
      <point x="1716" y="0" type="line"/>
      <point x="1711" y="19"/>
      <point x="1640" y="-320"/>
      <point x="1637" y="-290" type="curve"/>
      <point x="1743" y="-290" type="line"/>
      <point x="1752" y="-297"/>
      <point x="1845" y="48"/>
    </contour>
  </outline>
</glyph>
<glyph name="endescender-cy.sc" format="1">
  <advance width="1532"/>
  <outline>
    <contour>
      <point x="761" y="-144" type="move" name="mark0"/>
    </contour>
    <contour>
      <point x="1453" y="68" type="curve"/>
      <point x="1267" y="68" type="line"/>
      <point x="1267" y="1227" type="line"/>
      <point x="1417" y="1242" type="line"/>
      <point x="1417" y="1292" type="line"/>
      <point x="959" y="1292" type="line"/>
      <point x="959" y="1242" type="line"/>
      <point x="1111" y="1228" type="line"/>
      <point x="1111" y="699" type="line"/>
      <point x="421" y="699" type="line"/>
      <point x="421" y="1227" type="line"/>
      <point x="579" y="1242" type="line"/>
      <point x="579" y="1292" type="line"/>
      <point x="117" y="1292" type="line"/>
      <point x="117" y="1242" type="line"/>
      <point x="265" y="1227" type="line"/>
      <point x="265" y="66" type="line"/>
      <point x="111" y="52" type="line"/>
      <point x="111" y="0" type="line"/>
      <point x="581" y="0" type="line"/>
      <point x="581" y="52" type="line"/>
      <point x="421" y="66" type="line"/>
      <point x="421" y="635" type="line"/>
      <point x="1111" y="635" type="line"/>
      <point x="1111" y="68" type="line"/>
      <point x="957" y="52" type="line"/>
      <point x="957" y="0" type="line"/>
      <point x="1285" y="0" type="line"/>
      <point x="1289" y="0"/>
      <point x="1302" y="-273"/>
      <point x="1304" y="-292" type="curve"/>
      <point x="1406" y="-292" type="line"/>
      <point x="1408" y="-295"/>
      <point x="1453" y="127"/>
    </contour>
  </outline>
</glyph>
<glyph name="enghe-cy.sc" format="1">
  <advance width="1848"/>
  <outline>
    <contour>
      <point x="115" y="1292" type="line"/>
      <point x="115" y="1242" type="line"/>
      <point x="269" y="1227" type="line"/>
      <point x="269" y="66" type="line"/>
      <point x="107" y="52" type="line"/>
      <point x="107" y="0" type="line"/>
      <point x="594" y="0" type="line"/>
      <point x="594" y="52" type="line"/>
      <point x="423" y="68" type="line"/>
      <point x="423" y="635" type="line"/>
      <point x="1115" y="635" type="line"/>
      <point x="1115" y="68" type="line"/>
      <point x="953" y="52" type="line"/>
      <point x="953" y="0" type="line"/>
      <point x="1425" y="0" type="line"/>
      <point x="1425" y="52" type="line"/>
      <point x="1271" y="68" type="line"/>
      <point x="1271" y="1242" type="line"/>
      <point x="1603" y="1222" type="line"/>
      <point x="1650" y="928" type="line"/>
      <point x="1763" y="928" type="line"/>
      <point x="1742" y="1292" type="line"/>
      <point x="951" y="1292" type="line"/>
      <point x="951" y="1242" type="line"/>
      <point x="1115" y="1228" type="line"/>
      <point x="1115" y="699" type="line"/>
      <point x="423" y="699" type="line"/>
      <point x="423" y="1228" type="line"/>
      <point x="594" y="1242" type="line"/>
      <point x="594" y="1292" type="line"/>
    </contour>
  </outline>
</glyph>
<glyph name="enhook-cy.sc" format="1">
  <advance width="1527"/>
  <outline>
    <contour>
      <point x="764" y="-144" type="move" name="mark0"/>
    </contour>
    <contour>
      <point x="1267" y="431" type="curve" smooth="yes"/>
      <point x="1267" y="1228" type="line"/>
      <point x="1425" y="1242" type="line"/>
      <point x="1425" y="1292" type="line"/>
      <point x="959" y="1292" type="line"/>
      <point x="959" y="1242" type="line"/>
      <point x="1111" y="1228" type="line"/>
      <point x="1111" y="699" type="line"/>
      <point x="421" y="699" type="line"/>
      <point x="421" y="1227" type="line"/>
      <point x="579" y="1242" type="line"/>
      <point x="579" y="1292" type="line"/>
      <point x="117" y="1292" type="line"/>
      <point x="117" y="1242" type="line"/>
      <point x="265" y="1227" type="line"/>
      <point x="265" y="66" type="line"/>
      <point x="111" y="52" type="line"/>
      <point x="111" y="0" type="line"/>
      <point x="581" y="0" type="line"/>
      <point x="581" y="52" type="line"/>
      <point x="421" y="66" type="line"/>
      <point x="421" y="635" type="line"/>
      <point x="1109" y="635" type="line"/>
      <point x="1109" y="452" type="line" smooth="yes"/>
      <point x="1109" y="122"/>
      <point x="1109" y="15"/>
      <point x="1071" y="-82" type="curve"/>
      <point x="1029" y="-149"/>
      <point x="938" y="-208"/>
      <point x="831" y="-225" type="curve"/>
      <point x="869" y="-273" type="line"/>
      <point x="1018" y="-267"/>
      <point x="1203" y="-205"/>
      <point x="1248" y="-37" type="curve"/>
      <point x="1269" y="100"/>
      <point x="1267" y="225"/>
    </contour>
  </outline>
</glyph>
<glyph name="enlefthook-cy.sc" format="1">
  <advance width="1511"/>
  <outline>
    <contour>
      <point x="444" y="478" type="curve" smooth="yes"/>
      <point x="444" y="635" type="line"/>
      <point x="1115" y="635" type="line"/>
      <point x="1115" y="69" type="line"/>
      <point x="959" y="52" type="line"/>
      <point x="959" y="0" type="line"/>
      <point x="1421" y="0" type="line"/>
      <point x="1421" y="52" type="line"/>
      <point x="1271" y="67" type="line"/>
      <point x="1271" y="1227" type="line"/>
      <point x="1414" y="1242" type="line"/>
      <point x="1414" y="1292" type="line"/>
      <point x="961" y="1292" type="line"/>
      <point x="961" y="1242" type="line"/>
      <point x="1115" y="1229" type="line"/>
      <point x="1115" y="698" type="line"/>
      <point x="444" y="698" type="line"/>
      <point x="444" y="1227" type="line"/>
      <point x="602" y="1242" type="line"/>
      <point x="602" y="1292" type="line"/>
      <point x="139" y="1292" type="line"/>
      <point x="139" y="1242" type="line"/>
      <point x="288" y="1227" type="line"/>
      <point x="288" y="500" type="line" smooth="yes"/>
      <point x="288" y="232"/>
      <point x="288" y="115"/>
      <point x="252" y="-20" type="curve" smooth="yes"/>
      <point x="214" y="-128"/>
      <point x="117" y="-212"/>
      <point x="10" y="-240" type="curve"/>
      <point x="52" y="-281" type="line"/>
      <point x="212" y="-259"/>
      <point x="380" y="-166"/>
      <point x="427" y="43" type="curve"/>
      <point x="444" y="160"/>
      <point x="444" y="280"/>
    </contour>
  </outline>
</glyph>
<glyph name="entail-cy.sc" format="1">
  <advance width="1530"/>
  <outline>
    <contour>
      <point x="1448" y="0" type="curve"/>
      <point x="1448" y="64" type="line"/>
      <point x="1269" y="64" type="line"/>
      <point x="1269" y="1227" type="line"/>
      <point x="1417" y="1242" type="line"/>
      <point x="1417" y="1292" type="line"/>
      <point x="959" y="1292" type="line"/>
      <point x="959" y="1242" type="line"/>
      <point x="1111" y="1228" type="line"/>
      <point x="1111" y="699" type="line"/>
      <point x="421" y="699" type="line"/>
      <point x="421" y="1228" type="line"/>
      <point x="579" y="1242" type="line"/>
      <point x="579" y="1292" type="line"/>
      <point x="117" y="1292" type="line"/>
      <point x="117" y="1242" type="line"/>
      <point x="265" y="1228" type="line"/>
      <point x="265" y="66" type="line"/>
      <point x="111" y="51" type="line"/>
      <point x="111" y="0" type="line"/>
      <point x="581" y="0" type="line"/>
      <point x="581" y="51" type="line"/>
      <point x="421" y="68" type="line"/>
      <point x="421" y="635" type="line"/>
      <point x="1111" y="635" type="line"/>
      <point x="1111" y="68" type="line"/>
      <point x="957" y="51" type="line"/>
      <point x="957" y="0" type="line"/>
      <point x="1308" y="0" type="line"/>
      <point x="1279" y="-117"/>
      <point x="1253" y="-193"/>
      <point x="1225" y="-294" type="curve"/>
      <point x="1332" y="-294" type="line"/>
      <point x="1338" y="-309"/>
      <point x="1442" y="29"/>
    </contour>
  </outline>
</glyph>
<glyph name="ereversed-cy.sc" format="1">
  <advance width="1280"/>
  <outline>
    <contour>
      <point x="673" y="1263" type="move" name="top"/>
    </contour>
    <contour>
      <point x="182" y="1240" type="curve"/>
      <point x="176" y="1003" type="line"/>
      <point x="287" y="1001" type="line"/>
      <point x="333" y="1141" type="line"/>
      <point x="379" y="1184"/>
      <point x="437" y="1242"/>
      <point x="588" y="1242" type="curve" smooth="yes"/>
      <point x="864" y="1242"/>
      <point x="992" y="973"/>
      <point x="1015" y="696" type="curve"/>
      <point x="396" y="714" type="line"/>
      <point x="396" y="612" type="line"/>
      <point x="1018" y="628" type="line"/>
      <point x="1015" y="279"/>
      <point x="839" y="53"/>
      <point x="601" y="53" type="curve" smooth="yes"/>
      <point x="447" y="53"/>
      <point x="371" y="106"/>
      <point x="327" y="138" type="curve"/>
      <point x="251" y="262" type="line"/>
      <point x="151" y="235" type="line"/>
      <point x="193" y="51" type="line"/>
      <point x="288" y="52"/>
      <point x="377" y="-20"/>
      <point x="573" y="-20" type="curve" smooth="yes"/>
      <point x="945" y="-20"/>
      <point x="1201" y="258"/>
      <point x="1201" y="626" type="curve" smooth="yes"/>
      <point x="1201" y="1028"/>
      <point x="981" y="1306"/>
      <point x="595" y="1306" type="curve" smooth="yes"/>
      <point x="364" y="1306"/>
      <point x="280" y="1243"/>
    </contour>
  </outline>
</glyph>
<glyph name="ertick-cy.sc" format="1">
  <advance width="1199"/>
  <outline>
    <contour>
      <point x="618" y="-144" type="move" name="mark0"/>
    </contour>
    <contour>
      <point x="344" y="1292" type="curve" smooth="yes"/>
      <point x="121" y="1292" type="line"/>
      <point x="121" y="1242" type="line"/>
      <point x="265" y="1228" type="line"/>
      <point x="265" y="66" type="line"/>
      <point x="109" y="52" type="line"/>
      <point x="109" y="0" type="line"/>
      <point x="674" y="0" type="line"/>
      <point x="674" y="52" type="line"/>
      <point x="421" y="69" type="line"/>
      <point x="421" y="529" type="line"/>
      <point x="438" y="524"/>
      <point x="547" y="520"/>
      <point x="612" y="520" type="curve" smooth="yes"/>
      <point x="684" y="520"/>
      <point x="748" y="528"/>
      <point x="811" y="543" type="curve"/>
      <point x="984" y="317" type="line"/>
      <point x="1056" y="353" type="line"/>
      <point x="896" y="571" type="line"/>
      <point x="1035" y="635"/>
      <point x="1134" y="765"/>
      <point x="1134" y="953" type="curve" smooth="yes"/>
      <point x="1134" y="1170"/>
      <point x="1020" y="1306"/>
      <point x="661" y="1306" type="curve" smooth="yes"/>
      <point x="504" y="1305"/>
      <point x="462" y="1292"/>
    </contour>
    <contour>
      <point x="827" y="600" type="curve"/>
      <point x="692" y="781" type="line"/>
      <point x="618" y="744" type="line"/>
      <point x="745" y="590" type="line"/>
      <point x="699" y="588"/>
      <point x="656" y="588"/>
      <point x="616" y="588" type="curve" smooth="yes"/>
      <point x="536" y="588"/>
      <point x="459" y="588"/>
      <point x="421" y="595" type="curve"/>
      <point x="421" y="1230" type="line"/>
      <point x="471" y="1227"/>
      <point x="530" y="1240"/>
      <point x="618" y="1240" type="curve" smooth="yes"/>
      <point x="854" y="1240"/>
      <point x="968" y="1170"/>
      <point x="968" y="955" type="curve" smooth="yes"/>
      <point x="968" y="761"/>
      <point x="911" y="652"/>
    </contour>
  </outline>
</glyph>
<glyph name="fita-cy.sc" format="1">
  <advance width="1340"/>
  <outline>
    <contour>
      <point x="658" y="-20" type="curve" smooth="yes"/>
      <point x="996" y="-12"/>
      <point x="1262" y="243"/>
      <point x="1262" y="653" type="curve" smooth="yes"/>
      <point x="1262" y="1046"/>
      <point x="1060" y="1307"/>
      <point x="688" y="1306" type="curve" smooth="yes"/>
      <point x="349" y="1306"/>
      <point x="80" y="1046"/>
      <point x="80" y="633" type="curve" smooth="yes"/>
      <point x="80" y="247"/>
      <point x="286" y="-28"/>
    </contour>
    <contour>
      <point x="667" y="44" type="curve" smooth="yes"/>
      <point x="429" y="44"/>
      <point x="278" y="271"/>
      <point x="256" y="543" type="curve"/>
      <point x="299" y="586"/>
      <point x="372" y="678"/>
      <point x="466" y="678" type="curve" smooth="yes"/>
      <point x="564" y="678"/>
      <point x="694" y="550"/>
      <point x="839" y="550" type="curve" smooth="yes"/>
      <point x="949" y="550"/>
      <point x="1031" y="631"/>
      <point x="1085" y="708" type="curve"/>
      <point x="1083" y="290"/>
      <point x="932" y="44"/>
    </contour>
    <contour>
      <point x="254" y="608" type="curve"/>
      <point x="257" y="1033"/>
      <point x="429" y="1241"/>
      <point x="673" y="1241" type="curve" smooth="yes"/>
      <point x="906" y="1241"/>
      <point x="1052" y="1023"/>
      <point x="1079" y="773" type="curve"/>
      <point x="1037" y="730"/>
      <point x="962" y="636"/>
      <point x="869" y="636" type="curve" smooth="yes"/>
      <point x="761" y="636"/>
      <point x="637" y="763"/>
      <point x="494" y="763" type="curve" smooth="yes"/>
      <point x="389" y="763"/>
      <point x="311" y="690"/>
    </contour>
  </outline>
</glyph>
<glyph name="ge-cy.sc" format="1">
  <advance width="1061"/>
  <outline>
    <contour>
      <point x="660" y="1263" type="move" name="top"/>
    </contour>
    <contour>
      <point x="532" y="648" type="move" name="center"/>
    </contour>
    <contour>
      <point x="307" y="0" type="move" name="bottomright"/>
    </contour>
    <contour>
      <point x="73" y="1292" type="line"/>
      <point x="73" y="1244" type="line"/>
      <point x="267" y="1225" type="line"/>
      <point x="267" y="68" type="line"/>
      <point x="65" y="51" type="line"/>
      <point x="65" y="0" type="line"/>
      <point x="754" y="0" type="line"/>
      <point x="754" y="51" type="line"/>
      <point x="427" y="68" type="line"/>
      <point x="427" y="1240" type="line"/>
      <point x="863" y="1235" type="line"/>
      <point x="910" y="895" type="line"/>
      <point x="1014" y="895" type="line"/>
      <point x="1007" y="1292" type="line"/>
    </contour>
  </outline>
</glyph>
<glyph name="gedescender-cy.sc" format="1">
  <advance width="1053"/>
  <outline>
    <contour>
      <point x="595" y="-144" type="move" name="mark0"/>
    </contour>
    <contour>
      <point x="797" y="68" type="curve"/>
      <point x="427" y="68" type="line"/>
      <point x="427" y="1240" type="line"/>
      <point x="863" y="1235" type="line"/>
      <point x="910" y="895" type="line"/>
      <point x="1014" y="895" type="line"/>
      <point x="1007" y="1292" type="line"/>
      <point x="73" y="1292" type="line"/>
      <point x="73" y="1244" type="line"/>
      <point x="267" y="1225" type="line"/>
      <point x="267" y="68" type="line"/>
      <point x="65" y="51" type="line"/>
      <point x="65" y="0" type="line"/>
      <point x="631" y="0" type="line"/>
      <point x="635" y="1"/>
      <point x="648" y="-259"/>
      <point x="648" y="-292" type="curve"/>
      <point x="748" y="-292" type="line"/>
      <point x="750" y="-302"/>
      <point x="797" y="111"/>
    </contour>
  </outline>
</glyph>
<glyph name="gestrokehook-cy.sc" format="1">
  <advance width="1072"/>
  <outline>
    <contour>
      <point x="750" y="51" type="curve"/>
      <point x="427" y="68" type="line"/>
      <point x="427" y="618" type="line"/>
      <point x="781" y="618" type="line"/>
      <point x="781" y="677" type="line"/>
      <point x="427" y="677" type="line"/>
      <point x="427" y="1240" type="line"/>
      <point x="863" y="1235" type="line"/>
      <point x="910" y="895" type="line"/>
      <point x="1014" y="895" type="line"/>
      <point x="1007" y="1292" type="line"/>
      <point x="73" y="1292" type="line"/>
      <point x="73" y="1244" type="line"/>
      <point x="267" y="1225" type="line"/>
      <point x="267" y="677" type="line"/>
      <point x="92" y="677" type="line"/>
      <point x="92" y="618" type="line"/>
      <point x="267" y="618" type="line"/>
      <point x="267" y="68" type="line"/>
      <point x="65" y="51" type="line"/>
      <point x="65" y="0" type="line"/>
      <point x="693" y="0" type="line"/>
      <point x="714" y="-67"/>
      <point x="728" y="-128"/>
      <point x="728" y="-165" type="curve" smooth="yes"/>
      <point x="728" y="-270"/>
      <point x="678" y="-312"/>
      <point x="589" y="-312" type="curve" smooth="yes"/>
      <point x="576" y="-312"/>
      <point x="536" y="-308"/>
      <point x="505" y="-296" type="curve"/>
      <point x="503" y="-368" type="line"/>
      <point x="538" y="-379"/>
      <point x="591" y="-388"/>
      <point x="633" y="-388" type="curve" smooth="yes"/>
      <point x="769" y="-388"/>
      <point x="858" y="-319"/>
      <point x="858" y="-235" type="curve" smooth="yes"/>
      <point x="858" y="-130"/>
      <point x="795" y="-10"/>
    </contour>
  </outline>
</glyph>
<glyph name="ghemiddlehook-cy.sc" format="1">
  <advance width="1252"/>
  <outline>
    <contour>
      <point x="469" y="667" type="curve"/>
      <point x="469" y="1240" type="line"/>
      <point x="905" y="1227" type="line"/>
      <point x="952" y="971" type="line"/>
      <point x="1056" y="971" type="line"/>
      <point x="1047" y="1292" type="line"/>
      <point x="115" y="1292" type="line"/>
      <point x="115" y="1244" type="line"/>
      <point x="309" y="1225" type="line"/>
      <point x="309" y="68" type="line"/>
      <point x="107" y="52" type="line"/>
      <point x="107" y="0" type="line"/>
      <point x="691" y="0" type="line"/>
      <point x="691" y="52" type="line"/>
      <point x="469" y="68" type="line"/>
      <point x="469" y="618" type="line"/>
      <point x="562" y="661"/>
      <point x="646" y="670"/>
      <point x="743" y="670" type="curve" smooth="yes"/>
      <point x="952" y="670"/>
      <point x="1019" y="539"/>
      <point x="1019" y="311" type="curve" smooth="yes"/>
      <point x="1019" y="-62"/>
      <point x="941" y="-269"/>
      <point x="743" y="-269" type="curve" smooth="yes"/>
      <point x="707" y="-269"/>
      <point x="677" y="-271"/>
      <point x="662" y="-272" type="curve"/>
      <point x="663" y="-331" type="line"/>
      <point x="686" y="-340"/>
      <point x="736" y="-337"/>
      <point x="765" y="-337" type="curve" smooth="yes"/>
      <point x="1037" y="-337"/>
      <point x="1177" y="-34"/>
      <point x="1177" y="309" type="curve" smooth="yes"/>
      <point x="1177" y="509"/>
      <point x="1113" y="737"/>
      <point x="779" y="737" type="curve" smooth="yes"/>
      <point x="708" y="737"/>
      <point x="543" y="721"/>
    </contour>
  </outline>
</glyph>
<glyph name="ghestroke-cy.sc" format="1">
  <advance width="1072"/>
  <outline>
    <contour>
      <point x="73" y="1292" type="line"/>
      <point x="73" y="1244" type="line"/>
      <point x="267" y="1225" type="line"/>
      <point x="267" y="677" type="line"/>
      <point x="92" y="677" type="line"/>
      <point x="92" y="618" type="line"/>
      <point x="267" y="618" type="line"/>
      <point x="267" y="68" type="line"/>
      <point x="65" y="51" type="line"/>
      <point x="65" y="0" type="line"/>
      <point x="754" y="0" type="line"/>
      <point x="754" y="51" type="line"/>
      <point x="427" y="68" type="line"/>
      <point x="427" y="618" type="line"/>
      <point x="781" y="618" type="line"/>
      <point x="781" y="677" type="line"/>
      <point x="427" y="677" type="line"/>
      <point x="427" y="1240" type="line"/>
      <point x="863" y="1235" type="line"/>
      <point x="910" y="895" type="line"/>
      <point x="1014" y="895" type="line"/>
      <point x="1007" y="1292" type="line"/>
    </contour>
  </outline>
</glyph>
<glyph name="gheupturn-cy.sc" format="1">
  <advance width="1063"/>
  <outline>
    <contour>
      <point x="614" y="-144" type="move" name="mark0"/>
    </contour>
    <contour>
      <point x="905" y="1598" type="line"/>
      <point x="856" y="1292" type="line"/>
      <point x="90" y="1292" type="line"/>
      <point x="90" y="1245" type="line"/>
      <point x="292" y="1224" type="line"/>
      <point x="292" y="69" type="line"/>
      <point x="86" y="51" type="line"/>
      <point x="86" y="0" type="line"/>
      <point x="775" y="0" type="line"/>
      <point x="775" y="51" type="line"/>
      <point x="452" y="69" type="line"/>
      <point x="452" y="1241" type="line"/>
      <point x="998" y="1237" type="line"/>
      <point x="1015" y="1598" type="line"/>
    </contour>
  </outline>
</glyph>
<glyph name="haabkhasian-cy.sc" format="1">
  <advance width="1533"/>
  <outline>
    <contour>
      <point x="783" y="1229" type="curve"/>
      <point x="798" y="1301" type="line"/>
      <point x="767" y="1305"/>
      <point x="712" y="1306"/>
      <point x="678" y="1306" type="curve" smooth="yes"/>
      <point x="381" y="1306"/>
      <point x="80" y="1076"/>
      <point x="80" y="634" type="curve" smooth="yes"/>
      <point x="80" y="264"/>
      <point x="290" y="-20"/>
      <point x="686" y="-20" type="curve" smooth="yes"/>
      <point x="781" y="-20"/>
      <point x="876" y="3"/>
      <point x="954" y="52" type="curve"/>
      <point x="1033" y="16"/>
      <point x="1134" y="-20"/>
      <point x="1256" y="-20" type="curve" smooth="yes"/>
      <point x="1347" y="-20"/>
      <point x="1432" y="3"/>
      <point x="1500" y="50" type="curve"/>
      <point x="1462" y="85" type="line"/>
      <point x="1415" y="53"/>
      <point x="1346" y="44"/>
      <point x="1284" y="44" type="curve" smooth="yes"/>
      <point x="1204" y="44"/>
      <point x="1126" y="65"/>
      <point x="1073" y="99" type="curve"/>
      <point x="1179" y="156"/>
      <point x="1360" y="348"/>
      <point x="1360" y="602" type="curve" smooth="yes"/>
      <point x="1360" y="953"/>
      <point x="1172" y="1054"/>
      <point x="980" y="1054" type="curve" smooth="yes"/>
      <point x="788" y="1054"/>
      <point x="599" y="938"/>
      <point x="599" y="591" type="curve" smooth="yes"/>
      <point x="599" y="385"/>
      <point x="734" y="151"/>
      <point x="872" y="83" type="curve"/>
      <point x="788" y="42"/>
      <point x="741" y="44"/>
      <point x="705" y="44" type="curve" smooth="yes"/>
      <point x="469" y="44"/>
      <point x="254" y="271"/>
      <point x="254" y="636" type="curve" smooth="yes"/>
      <point x="254" y="1059"/>
      <point x="451" y="1244"/>
      <point x="674" y="1244" type="curve" smooth="yes"/>
      <point x="708" y="1244"/>
      <point x="748" y="1240"/>
    </contour>
    <contour>
      <point x="978" y="1008" type="curve" smooth="yes"/>
      <point x="1125" y="1008"/>
      <point x="1190" y="857"/>
      <point x="1190" y="600" type="curve" smooth="yes"/>
      <point x="1190" y="370"/>
      <point x="1104" y="199"/>
      <point x="993" y="122" type="curve"/>
      <point x="872" y="208"/>
      <point x="765" y="394"/>
      <point x="765" y="576" type="curve" smooth="yes"/>
      <point x="765" y="887"/>
      <point x="849" y="1008"/>
    </contour>
  </outline>
</glyph>
<glyph name="hadescender-cy.sc" format="1">
  <advance width="1321"/>
  <outline>
    <contour>
      <point x="662" y="-144" type="move" name="mark0"/>
    </contour>
    <contour>
      <point x="1342" y="68" type="curve"/>
      <point x="1157" y="68" type="line"/>
      <point x="745" y="659" type="line"/>
      <point x="1123" y="1225" type="line"/>
      <point x="1267" y="1242" type="line"/>
      <point x="1267" y="1292" type="line"/>
      <point x="831" y="1292" type="line"/>
      <point x="831" y="1242" type="line"/>
      <point x="994" y="1228" type="line"/>
      <point x="693" y="700" type="line"/>
      <point x="391" y="1226" type="line"/>
      <point x="575" y="1242" type="line"/>
      <point x="575" y="1292" type="line"/>
      <point x="60" y="1292" type="line"/>
      <point x="60" y="1242" type="line"/>
      <point x="199" y="1225" type="line"/>
      <point x="582" y="673" type="line"/>
      <point x="185" y="66" type="line"/>
      <point x="27" y="52" type="line"/>
      <point x="27" y="0" type="line"/>
      <point x="508" y="0" type="line"/>
      <point x="508" y="52" type="line"/>
      <point x="321" y="66" type="line"/>
      <point x="637" y="631" type="line"/>
      <point x="965" y="68" type="line"/>
      <point x="788" y="52" type="line"/>
      <point x="788" y="0" type="line"/>
      <point x="1175" y="0" type="line"/>
      <point x="1177" y="12"/>
      <point x="1190" y="-247"/>
      <point x="1192" y="-284" type="curve"/>
      <point x="1292" y="-284" type="line"/>
      <point x="1296" y="-284"/>
      <point x="1342" y="126"/>
    </contour>
  </outline>
</glyph>
<glyph name="hardsign-cy.sc" format="1">
  <advance width="1507"/>
  <outline>
    <contour>
      <point x="684" y="-144" type="move" name="mark0"/>
    </contour>
    <contour>
      <point x="974" y="799" type="curve" smooth="yes"/>
      <point x="737" y="799" type="line"/>
      <point x="737" y="1228" type="line"/>
      <point x="904" y="1241" type="line"/>
      <point x="904" y="1292" type="line"/>
      <point x="107" y="1292" type="line"/>
      <point x="84" y="934" type="line"/>
      <point x="192" y="934" type="line"/>
      <point x="241" y="1227" type="line"/>
      <point x="577" y="1240" type="line"/>
      <point x="577" y="68" type="line"/>
      <point x="337" y="51" type="line"/>
      <point x="337" y="0" type="line"/>
      <point x="663" y="0" type="line" smooth="yes"/>
      <point x="739" y="0"/>
      <point x="908" y="-14"/>
      <point x="951" y="-14" type="curve" smooth="yes"/>
      <point x="1236" y="-14"/>
      <point x="1432" y="126"/>
      <point x="1432" y="411" type="curve" smooth="yes"/>
      <point x="1432" y="655"/>
      <point x="1272" y="799"/>
    </contour>
    <contour>
      <point x="737" y="61" type="curve"/>
      <point x="737" y="730" type="line"/>
      <point x="935" y="730" type="line" smooth="yes"/>
      <point x="1144" y="730"/>
      <point x="1268" y="608"/>
      <point x="1268" y="407" type="curve" smooth="yes"/>
      <point x="1268" y="156"/>
      <point x="1146" y="44"/>
      <point x="933" y="44" type="curve" smooth="yes"/>
      <point x="824" y="44"/>
      <point x="782" y="54"/>
    </contour>
  </outline>
</glyph>
<glyph name="hastroke-cy.sc" format="1">
  <advance width="1321"/>
  <outline>
    <contour>
      <point x="1054" y="699" type="line"/>
      <point x="292" y="699" type="line"/>
      <point x="292" y="642" type="line"/>
      <point x="1054" y="642" type="line"/>
    </contour>
    <contour>
      <point x="185" y="66" type="line"/>
      <point x="27" y="52" type="line"/>
      <point x="27" y="0" type="line"/>
      <point x="508" y="0" type="line"/>
      <point x="508" y="52" type="line"/>
      <point x="321" y="66" type="line"/>
      <point x="637" y="631" type="line"/>
      <point x="965" y="68" type="line"/>
      <point x="788" y="52" type="line"/>
      <point x="788" y="0" type="line"/>
      <point x="1302" y="0" type="line"/>
      <point x="1302" y="52" type="line"/>
      <point x="1157" y="68" type="line"/>
      <point x="745" y="659" type="line"/>
      <point x="1123" y="1225" type="line"/>
      <point x="1267" y="1242" type="line"/>
      <point x="1267" y="1292" type="line"/>
      <point x="831" y="1292" type="line"/>
      <point x="831" y="1242" type="line"/>
      <point x="994" y="1228" type="line"/>
      <point x="693" y="700" type="line"/>
      <point x="391" y="1226" type="line"/>
      <point x="575" y="1242" type="line"/>
      <point x="575" y="1292" type="line"/>
      <point x="60" y="1292" type="line"/>
      <point x="60" y="1242" type="line"/>
      <point x="199" y="1225" type="line"/>
      <point x="582" y="673" type="line"/>
    </contour>
  </outline>
</glyph>
<glyph name="ia-cy.sc" format="1">
  <advance width="1294"/>
  <outline>
    <contour>
      <point x="873" y="583" type="curve"/>
      <point x="873" y="66" type="line"/>
      <point x="694" y="51" type="line"/>
      <point x="694" y="0" type="line"/>
      <point x="1204" y="0" type="line"/>
      <point x="1204" y="51" type="line"/>
      <point x="1029" y="66" type="line"/>
      <point x="1029" y="1228" type="line"/>
      <point x="1189" y="1242" type="line"/>
      <point x="1189" y="1292" type="line"/>
      <point x="933" y="1292" type="line" smooth="yes"/>
      <point x="842" y="1292"/>
      <point x="768" y="1308"/>
      <point x="679" y="1308" type="curve" smooth="yes"/>
      <point x="412" y="1308"/>
      <point x="179" y="1281"/>
      <point x="179" y="927" type="curve" smooth="yes"/>
      <point x="179" y="720"/>
      <point x="288" y="617"/>
      <point x="443" y="575" type="curve"/>
      <point x="313" y="495"/>
      <point x="166" y="82"/>
      <point x="77" y="69" type="curve"/>
      <point x="4" y="51" type="line"/>
      <point x="4" y="0" type="line"/>
      <point x="218" y="0" type="line" smooth="yes"/>
      <point x="311" y="0"/>
      <point x="454" y="478"/>
      <point x="585" y="583" type="curve"/>
      <point x="682" y="584"/>
      <point x="779" y="584"/>
    </contour>
    <contour>
      <point x="873" y="1224" type="curve"/>
      <point x="873" y="660" type="line"/>
      <point x="839" y="658"/>
      <point x="764" y="654"/>
      <point x="657" y="654" type="curve" smooth="yes"/>
      <point x="457" y="654"/>
      <point x="341" y="768"/>
      <point x="341" y="954" type="curve" smooth="yes"/>
      <point x="341" y="1185"/>
      <point x="471" y="1239"/>
      <point x="657" y="1239" type="curve" smooth="yes"/>
      <point x="774" y="1239"/>
      <point x="814" y="1225"/>
    </contour>
  </outline>
</glyph>
<glyph name="ii-cy.sc" format="1">
  <advance width="1561"/>
  <outline>
    <contour>
      <point x="798" y="1263" type="move" name="top"/>
    </contour>
    <contour>
      <point x="1328" y="0" type="move" name="bottomright"/>
    </contour>
    <contour>
      <point x="119" y="1292" type="line"/>
      <point x="119" y="1242" type="line"/>
      <point x="267" y="1227" type="line"/>
      <point x="267" y="67" type="line"/>
      <point x="111" y="52" type="line"/>
      <point x="111" y="0" type="line"/>
      <point x="594" y="0" type="line"/>
      <point x="594" y="52" type="line"/>
      <point x="419" y="69" type="line"/>
      <point x="419" y="145" type="line"/>
      <point x="993" y="856" type="line"/>
      <point x="1141" y="1074" type="line"/>
      <point x="1141" y="68" type="line"/>
      <point x="976" y="52" type="line"/>
      <point x="976" y="0" type="line"/>
      <point x="1455" y="0" type="line"/>
      <point x="1455" y="52" type="line"/>
      <point x="1296" y="68" type="line"/>
      <point x="1296" y="1228" type="line"/>
      <point x="1444" y="1242" type="line"/>
      <point x="1444" y="1292" type="line"/>
      <point x="976" y="1292" type="line"/>
      <point x="976" y="1242" type="line"/>
      <point x="1141" y="1228" type="line"/>
      <point x="1141" y="1169" type="line"/>
      <point x="585" y="475" type="line"/>
      <point x="419" y="237" type="line"/>
      <point x="419" y="1229" type="line"/>
      <point x="604" y="1244" type="line"/>
      <point x="604" y="1292" type="line"/>
    </contour>
  </outline>
</glyph>
<glyph name="iishorttail-cy.sc" format="1">
  <advance width="1563"/>
  <outline>
    <contour>
      <point x="1299" y="0" type="move" name="bottomright"/>
    </contour>
    <contour>
      <point x="1482" y="0" type="curve"/>
      <point x="1482" y="67" type="line"/>
      <point x="1269" y="67" type="line"/>
      <point x="1266" y="0" type="line"/>
      <point x="1342" y="0" type="line"/>
      <point x="1333" y="-31"/>
      <point x="1268" y="-333"/>
      <point x="1263" y="-290" type="curve"/>
      <point x="1373" y="-290" type="line"/>
      <point x="1380" y="-291"/>
      <point x="1479" y="43"/>
    </contour>
    <contour>
      <point x="566" y="1973" type="curve" smooth="yes"/>
      <point x="453" y="1973" type="line"/>
      <point x="453" y="1964"/>
      <point x="451" y="1956"/>
      <point x="451" y="1951" type="curve" smooth="yes"/>
      <point x="451" y="1743"/>
      <point x="574" y="1571"/>
      <point x="800" y="1571" type="curve" smooth="yes"/>
      <point x="1030" y="1571"/>
      <point x="1146" y="1740"/>
      <point x="1146" y="1951" type="curve" smooth="yes"/>
      <point x="1146" y="1956"/>
      <point x="1144" y="1964"/>
      <point x="1144" y="1973" type="curve"/>
      <point x="1031" y="1973" type="line" smooth="yes"/>
      <point x="1006" y="1973"/>
      <point x="1003" y="1947"/>
      <point x="1003" y="1939" type="curve" smooth="yes"/>
      <point x="1003" y="1850"/>
      <point x="957" y="1687"/>
      <point x="802" y="1687" type="curve" smooth="yes"/>
      <point x="644" y="1687"/>
      <point x="594" y="1850"/>
      <point x="594" y="1939" type="curve" smooth="yes"/>
      <point x="594" y="1947"/>
      <point x="591" y="1973"/>
    </contour>
    <contour>
      <point x="119" y="1292" type="line"/>
      <point x="119" y="1242" type="line"/>
      <point x="267" y="1227" type="line"/>
      <point x="267" y="67" type="line"/>
      <point x="111" y="52" type="line"/>
      <point x="111" y="0" type="line"/>
      <point x="594" y="0" type="line"/>
      <point x="594" y="52" type="line"/>
      <point x="419" y="69" type="line"/>
      <point x="419" y="145" type="line"/>
      <point x="993" y="856" type="line"/>
      <point x="1141" y="1074" type="line"/>
      <point x="1141" y="68" type="line"/>
      <point x="976" y="52" type="line"/>
      <point x="976" y="0" type="line"/>
      <point x="1455" y="0" type="line"/>
      <point x="1455" y="52" type="line"/>
      <point x="1296" y="68" type="line"/>
      <point x="1296" y="1228" type="line"/>
      <point x="1444" y="1242" type="line"/>
      <point x="1444" y="1292" type="line"/>
      <point x="976" y="1292" type="line"/>
      <point x="976" y="1242" type="line"/>
      <point x="1141" y="1228" type="line"/>
      <point x="1141" y="1169" type="line"/>
      <point x="585" y="475" type="line"/>
      <point x="419" y="237" type="line"/>
      <point x="419" y="1229" type="line"/>
      <point x="604" y="1244" type="line"/>
      <point x="604" y="1292" type="line"/>
    </contour>
  </outline>
</glyph>
<glyph name="iu-cy.sc" format="1">
  <advance width="1965"/>
  <outline>
    <contour>
      <point x="733" y="699" type="curve"/>
      <point x="417" y="699" type="line"/>
      <point x="417" y="1228" type="line"/>
      <point x="571" y="1242" type="line"/>
      <point x="571" y="1292" type="line"/>
      <point x="117" y="1292" type="line"/>
      <point x="117" y="1242" type="line"/>
      <point x="265" y="1228" type="line"/>
      <point x="265" y="68" type="line"/>
      <point x="111" y="52" type="line"/>
      <point x="111" y="0" type="line"/>
      <point x="579" y="0" type="line"/>
      <point x="579" y="52" type="line"/>
      <point x="419" y="68" type="line"/>
      <point x="419" y="644" type="line"/>
      <point x="728" y="644" type="line"/>
      <point x="726" y="254"/>
      <point x="941" y="-15"/>
      <point x="1301" y="-15" type="curve" smooth="yes"/>
      <point x="1616" y="-15"/>
      <point x="1875" y="225"/>
      <point x="1882" y="654" type="curve" smooth="yes"/>
      <point x="1890" y="1027"/>
      <point x="1679" y="1307"/>
      <point x="1328" y="1306" type="curve" smooth="yes"/>
      <point x="1040" y="1306"/>
      <point x="771" y="1088"/>
    </contour>
    <contour>
      <point x="1317" y="1235" type="curve" smooth="yes"/>
      <point x="1572" y="1235"/>
      <point x="1713" y="939"/>
      <point x="1713" y="655" type="curve" smooth="yes"/>
      <point x="1713" y="247"/>
      <point x="1557" y="59"/>
      <point x="1313" y="59" type="curve" smooth="yes"/>
      <point x="1044" y="59"/>
      <point x="897" y="349"/>
      <point x="897" y="626" type="curve" smooth="yes"/>
      <point x="897" y="1053"/>
      <point x="1078" y="1235"/>
    </contour>
  </outline>
</glyph>
<glyph name="izhitsa-cy.sc" format="1">
  <advance width="1334"/>
  <outline>
    <contour>
      <point x="988" y="1080" type="curve"/>
      <point x="745" y="358" type="line"/>
      <point x="680" y="74" type="line"/>
      <point x="607" y="360" type="line"/>
      <point x="307" y="1229" type="line"/>
      <point x="466" y="1242" type="line"/>
      <point x="466" y="1292" type="line"/>
      <point x="29" y="1292" type="line"/>
      <point x="29" y="1242" type="line"/>
      <point x="139" y="1229" type="line"/>
      <point x="599" y="-15" type="line"/>
      <point x="723" y="-15" type="line"/>
      <point x="1081" y="1012" type="line"/>
      <point x="1128" y="1193"/>
      <point x="1220" y="1198"/>
      <point x="1297" y="1198" type="curve" smooth="yes"/>
      <point x="1307" y="1198"/>
      <point x="1314" y="1198"/>
      <point x="1314" y="1198" type="curve"/>
      <point x="1314" y="1282" type="line"/>
      <point x="1305" y="1283"/>
      <point x="1286" y="1289"/>
      <point x="1235" y="1289" type="curve" smooth="yes"/>
      <point x="1148" y="1289"/>
      <point x="1030" y="1245"/>
    </contour>
  </outline>
</glyph>
<glyph name="ka-cy.sc" format="1">
  <advance width="1294"/>
  <outline>
    <contour>
      <point x="648" y="1263" type="move" name="top"/>
    </contour>
    <contour>
      <point x="648" y="648" type="move" name="center"/>
    </contour>
    <contour>
      <point x="1244" y="0" type="move" name="bottomright"/>
    </contour>
    <contour>
      <point x="689" y="651" type="curve"/>
      <point x="1104" y="1228" type="line"/>
      <point x="1242" y="1242" type="line"/>
      <point x="1242" y="1292" type="line"/>
      <point x="814" y="1292" type="line"/>
      <point x="814" y="1242" type="line"/>
      <point x="974" y="1227" type="line"/>
      <point x="583" y="661" type="line"/>
      <point x="416" y="661" type="line"/>
      <point x="416" y="1228" type="line"/>
      <point x="570" y="1242" type="line"/>
      <point x="570" y="1292" type="line"/>
      <point x="113" y="1292" type="line"/>
      <point x="113" y="1242" type="line"/>
      <point x="263" y="1228" type="line"/>
      <point x="263" y="68" type="line"/>
      <point x="113" y="55" type="line"/>
      <point x="113" y="0" type="line"/>
      <point x="575" y="0" type="line"/>
      <point x="575" y="53" type="line"/>
      <point x="416" y="68" type="line"/>
      <point x="416" y="601" type="line"/>
      <point x="547" y="601" type="line" smooth="yes"/>
      <point x="697" y="601"/>
      <point x="947" y="0"/>
      <point x="1073" y="0" type="curve"/>
      <point x="1265" y="0" type="line"/>
      <point x="1265" y="52" type="line"/>
      <point x="1195" y="68" type="line" smooth="yes"/>
      <point x="1094" y="92"/>
      <point x="861" y="569"/>
    </contour>
  </outline>
</glyph>
<glyph name="kabashkir-cy.sc" format="1">
  <advance width="1560"/>
  <outline>
    <contour>
      <point x="975" y="-144" type="move" name="mark0"/>
    </contour>
    <contour>
      <point x="975" y="654" type="curve"/>
      <point x="1383" y="1228" type="line"/>
      <point x="1525" y="1242" type="line"/>
      <point x="1525" y="1292" type="line"/>
      <point x="1098" y="1292" type="line"/>
      <point x="1098" y="1242" type="line"/>
      <point x="1247" y="1227" type="line"/>
      <point x="866" y="670" type="line"/>
      <point x="698" y="670" type="line"/>
      <point x="698" y="1228" type="line"/>
      <point x="866" y="1242" type="line"/>
      <point x="866" y="1292" type="line"/>
      <point x="105" y="1292" type="line"/>
      <point x="86" y="928" type="line"/>
      <point x="198" y="928" type="line"/>
      <point x="247" y="1227" type="line"/>
      <point x="546" y="1240" type="line"/>
      <point x="546" y="68" type="line"/>
      <point x="384" y="52" type="line"/>
      <point x="384" y="0" type="line"/>
      <point x="864" y="0" type="line"/>
      <point x="864" y="53" type="line"/>
      <point x="698" y="66" type="line"/>
      <point x="698" y="594" type="line"/>
      <point x="828" y="594" type="line" smooth="yes"/>
      <point x="978" y="594"/>
      <point x="1228" y="0"/>
      <point x="1355" y="0" type="curve"/>
      <point x="1548" y="0" type="line"/>
      <point x="1548" y="52" type="line"/>
      <point x="1476" y="71" type="line" smooth="yes"/>
      <point x="1380" y="96"/>
      <point x="1146" y="561"/>
    </contour>
  </outline>
</glyph>
<glyph name="kadescender-cy.sc" format="1">
  <advance width="1292"/>
  <outline>
    <contour>
      <point x="683" y="651" type="curve"/>
      <point x="1098" y="1228" type="line"/>
      <point x="1237" y="1242" type="line"/>
      <point x="1237" y="1292" type="line"/>
      <point x="808" y="1292" type="line"/>
      <point x="808" y="1242" type="line"/>
      <point x="968" y="1227" type="line"/>
      <point x="578" y="661" type="line"/>
      <point x="410" y="661" type="line"/>
      <point x="410" y="1228" type="line"/>
      <point x="564" y="1242" type="line"/>
      <point x="564" y="1292" type="line"/>
      <point x="107" y="1292" type="line"/>
      <point x="107" y="1242" type="line"/>
      <point x="257" y="1228" type="line"/>
      <point x="257" y="68" type="line"/>
      <point x="107" y="55" type="line"/>
      <point x="107" y="0" type="line"/>
      <point x="569" y="0" type="line"/>
      <point x="569" y="53" type="line"/>
      <point x="410" y="68" type="line"/>
      <point x="410" y="601" type="line"/>
      <point x="542" y="601" type="line" smooth="yes"/>
      <point x="691" y="601"/>
      <point x="942" y="0"/>
      <point x="1067" y="0" type="curve" smooth="yes"/>
      <point x="1121" y="0" type="line"/>
      <point x="1125" y="7"/>
      <point x="1138" y="-277"/>
      <point x="1138" y="-292" type="curve"/>
      <point x="1240" y="-292" type="line"/>
      <point x="1255" y="-132"/>
      <point x="1274" y="-41"/>
      <point x="1288" y="68" type="curve"/>
      <point x="1187" y="68" type="line"/>
      <point x="1084" y="103"/>
      <point x="853" y="569"/>
    </contour>
  </outline>
</glyph>
<glyph name="kahook-cy.sc" format="1">
  <advance width="1300"/>
  <outline>
    <contour>
      <point x="416" y="676" type="curve"/>
      <point x="416" y="1228" type="line"/>
      <point x="570" y="1242" type="line"/>
      <point x="570" y="1292" type="line"/>
      <point x="113" y="1292" type="line"/>
      <point x="113" y="1242" type="line"/>
      <point x="263" y="1228" type="line"/>
      <point x="263" y="68" type="line"/>
      <point x="113" y="55" type="line"/>
      <point x="113" y="0" type="line"/>
      <point x="575" y="0" type="line"/>
      <point x="575" y="53" type="line"/>
      <point x="416" y="68" type="line"/>
      <point x="416" y="622" type="line"/>
      <point x="511" y="643"/>
      <point x="572" y="661"/>
      <point x="692" y="661" type="curve" smooth="yes"/>
      <point x="901" y="661"/>
      <point x="989" y="540"/>
      <point x="989" y="311" type="curve" smooth="yes"/>
      <point x="989" y="-84"/>
      <point x="887" y="-259"/>
      <point x="686" y="-259" type="curve" smooth="yes"/>
      <point x="654" y="-259"/>
      <point x="623" y="-260"/>
      <point x="610" y="-258" type="curve"/>
      <point x="610" y="-329" type="line"/>
      <point x="631" y="-338"/>
      <point x="688" y="-335"/>
      <point x="716" y="-335" type="curve" smooth="yes"/>
      <point x="989" y="-335"/>
      <point x="1147" y="-44"/>
      <point x="1147" y="310" type="curve" smooth="yes"/>
      <point x="1147" y="526"/>
      <point x="1062" y="732"/>
      <point x="754" y="735" type="curve"/>
      <point x="1104" y="1228" type="line"/>
      <point x="1244" y="1242" type="line"/>
      <point x="1244" y="1292" type="line"/>
      <point x="818" y="1292" type="line"/>
      <point x="818" y="1242" type="line"/>
      <point x="973" y="1228" type="line"/>
      <point x="623" y="730" type="line"/>
      <point x="551" y="716"/>
      <point x="471" y="697"/>
    </contour>
  </outline>
</glyph>
<glyph name="kastroke-cy.sc" format="1">
  <advance width="1290"/>
  <outline>
    <contour>
      <point x="683" y="-144" type="move" name="mark0"/>
    </contour>
    <contour>
      <point x="685" y="650" type="curve"/>
      <point x="1098" y="1229" type="line"/>
      <point x="1237" y="1242" type="line"/>
      <point x="1237" y="1292" type="line"/>
      <point x="808" y="1292" type="line"/>
      <point x="808" y="1242" type="line"/>
      <point x="968" y="1227" type="line"/>
      <point x="579" y="660" type="line"/>
      <point x="410" y="660" type="line"/>
      <point x="410" y="916" type="line"/>
      <point x="569" y="916" type="line"/>
      <point x="569" y="991" type="line"/>
      <point x="410" y="991" type="line"/>
      <point x="410" y="1229" type="line"/>
      <point x="564" y="1242" type="line"/>
      <point x="564" y="1292" type="line"/>
      <point x="107" y="1292" type="line"/>
      <point x="107" y="1242" type="line"/>
      <point x="257" y="1229" type="line"/>
      <point x="257" y="991" type="line"/>
      <point x="111" y="991" type="line"/>
      <point x="111" y="916" type="line"/>
      <point x="257" y="916" type="line"/>
      <point x="257" y="69" type="line"/>
      <point x="107" y="55" type="line"/>
      <point x="107" y="0" type="line"/>
      <point x="569" y="0" type="line"/>
      <point x="569" y="53" type="line"/>
      <point x="410" y="69" type="line"/>
      <point x="410" y="601" type="line"/>
      <point x="543" y="601" type="line" smooth="yes"/>
      <point x="693" y="601"/>
      <point x="942" y="0"/>
      <point x="1067" y="0" type="curve" smooth="yes"/>
      <point x="1259" y="0" type="line"/>
      <point x="1259" y="52" type="line"/>
      <point x="1189" y="69" type="line" smooth="yes"/>
      <point x="1088" y="91"/>
      <point x="855" y="569"/>
    </contour>
  </outline>
</glyph>
<glyph name="kaverticalstroke-cy.sc" format="1">
  <advance width="1368"/>
  <outline>
    <contour>
      <point x="833" y="650" type="curve"/>
      <point x="1178" y="1227" type="line"/>
      <point x="1312" y="1242" type="line"/>
      <point x="1312" y="1292" type="line"/>
      <point x="888" y="1292" type="line"/>
      <point x="888" y="1242" type="line"/>
      <point x="1047" y="1225" type="line"/>
      <point x="723" y="670" type="line"/>
      <point x="653" y="670" type="line"/>
      <point x="653" y="964" type="line"/>
      <point x="560" y="964" type="line"/>
      <point x="560" y="670" type="line"/>
      <point x="416" y="670" type="line"/>
      <point x="416" y="1228" type="line"/>
      <point x="570" y="1242" type="line"/>
      <point x="570" y="1292" type="line"/>
      <point x="113" y="1292" type="line"/>
      <point x="113" y="1242" type="line"/>
      <point x="263" y="1228" type="line"/>
      <point x="263" y="68" type="line"/>
      <point x="113" y="55" type="line"/>
      <point x="113" y="0" type="line"/>
      <point x="575" y="0" type="line"/>
      <point x="575" y="53" type="line"/>
      <point x="416" y="68" type="line"/>
      <point x="416" y="594" type="line"/>
      <point x="560" y="594" type="line"/>
      <point x="560" y="314" type="line"/>
      <point x="653" y="314" type="line"/>
      <point x="653" y="592" type="line"/>
      <point x="691" y="592" type="line" smooth="yes"/>
      <point x="839" y="640"/>
      <point x="1046" y="0"/>
      <point x="1174" y="0" type="curve" smooth="yes"/>
      <point x="1363" y="2" type="line"/>
      <point x="1363" y="52" type="line"/>
      <point x="1293" y="71" type="line" smooth="yes"/>
      <point x="1198" y="96"/>
      <point x="996" y="547"/>
    </contour>
  </outline>
</glyph>
<glyph name="komide-cy.sc" format="1">
  <advance width="1190"/>
  <outline>
    <contour>
      <point x="737" y="0" type="curve"/>
      <point x="1081" y="0" type="line"/>
      <point x="1081" y="52" type="line"/>
      <point x="925" y="66" type="line"/>
      <point x="925" y="1237" type="line"/>
      <point x="1075" y="1258" type="line"/>
      <point x="1075" y="1292" type="line"/>
      <point x="584" y="1292" type="line"/>
      <point x="584" y="1258" type="line"/>
      <point x="770" y="1237" type="line"/>
      <point x="770" y="768" type="line"/>
      <point x="709" y="774"/>
      <point x="620" y="784"/>
      <point x="552" y="784" type="curve" smooth="yes"/>
      <point x="267" y="784"/>
      <point x="71" y="660"/>
      <point x="71" y="366" type="curve" smooth="yes"/>
      <point x="71" y="132"/>
      <point x="234" y="-12"/>
      <point x="529" y="-12" type="curve" smooth="yes"/>
      <point x="602" y="-12"/>
      <point x="676" y="-8"/>
    </contour>
    <contour>
      <point x="770" y="703" type="curve"/>
      <point x="770" y="77" type="line"/>
      <point x="721" y="65"/>
      <point x="639" y="63"/>
      <point x="572" y="63" type="curve" smooth="yes"/>
      <point x="361" y="63"/>
      <point x="235" y="152"/>
      <point x="235" y="378" type="curve" smooth="yes"/>
      <point x="235" y="617"/>
      <point x="361" y="721"/>
      <point x="570" y="721" type="curve" smooth="yes"/>
      <point x="667" y="721"/>
      <point x="715" y="711"/>
    </contour>
  </outline>
</glyph>
<glyph name="komidje-cy.sc" format="1">
  <advance width="1680"/>
  <outline>
    <contour>
      <point x="1497" y="286" type="curve" smooth="yes"/>
      <point x="1497" y="615" type="line"/>
      <point x="1630" y="631" type="line"/>
      <point x="1630" y="694" type="line"/>
      <point x="1195" y="694" type="line"/>
      <point x="1195" y="631" type="line"/>
      <point x="1341" y="614" type="line"/>
      <point x="1341" y="330" type="line" smooth="yes"/>
      <point x="1341" y="140"/>
      <point x="1286" y="54"/>
      <point x="1118" y="54" type="curve" smooth="yes"/>
      <point x="970" y="54"/>
      <point x="925" y="145"/>
      <point x="925" y="335" type="curve" smooth="yes"/>
      <point x="925" y="1236" type="line"/>
      <point x="1075" y="1259" type="line"/>
      <point x="1075" y="1292" type="line"/>
      <point x="586" y="1292" type="line"/>
      <point x="586" y="1259" type="line"/>
      <point x="770" y="1236" type="line"/>
      <point x="770" y="769" type="line"/>
      <point x="709" y="775"/>
      <point x="620" y="785"/>
      <point x="552" y="785" type="curve" smooth="yes"/>
      <point x="267" y="785"/>
      <point x="71" y="660"/>
      <point x="71" y="366" type="curve" smooth="yes"/>
      <point x="71" y="133"/>
      <point x="234" y="-12"/>
      <point x="529" y="-12" type="curve" smooth="yes"/>
      <point x="629" y="-12"/>
      <point x="753" y="-6"/>
      <point x="865" y="59" type="curve"/>
      <point x="922" y="14"/>
      <point x="1003" y="-14"/>
      <point x="1115" y="-14" type="curve" smooth="yes"/>
      <point x="1359" y="-14"/>
      <point x="1497" y="111"/>
    </contour>
    <contour>
      <point x="770" y="703" type="curve"/>
      <point x="770" y="292" type="line" smooth="yes"/>
      <point x="770" y="251"/>
      <point x="774" y="193"/>
      <point x="795" y="140" type="curve"/>
      <point x="738" y="84"/>
      <point x="635" y="62"/>
      <point x="572" y="62" type="curve" smooth="yes"/>
      <point x="361" y="62"/>
      <point x="235" y="153"/>
      <point x="235" y="377" type="curve" smooth="yes"/>
      <point x="235" y="618"/>
      <point x="361" y="722"/>
      <point x="570" y="722" type="curve" smooth="yes"/>
      <point x="667" y="722"/>
      <point x="715" y="712"/>
    </contour>
  </outline>
</glyph>
<glyph name="komidzje-cy.sc" format="1">
  <advance width="1214"/>
  <outline>
    <contour>
      <point x="479" y="691" type="curve" smooth="yes"/>
      <point x="371" y="691" type="line"/>
      <point x="371" y="630" type="line"/>
      <point x="500" y="630" type="line" smooth="yes"/>
      <point x="742" y="630"/>
      <point x="843" y="521"/>
      <point x="843" y="326" type="curve" smooth="yes"/>
      <point x="843" y="245"/>
      <point x="790" y="87"/>
      <point x="676" y="86" type="curve"/>
      <point x="676" y="0" type="line"/>
      <point x="1013" y="0" type="line"/>
      <point x="1013" y="17"/>
      <point x="1020" y="-193"/>
      <point x="1022" y="-290" type="curve"/>
      <point x="1126" y="-290" type="line"/>
      <point x="1168" y="157"/>
      <point x="1160" y="-76"/>
      <point x="1181" y="79" type="curve"/>
      <point x="927" y="79" type="line"/>
      <point x="969" y="104"/>
      <point x="1030" y="220"/>
      <point x="1030" y="322" type="curve" smooth="yes"/>
      <point x="1030" y="508"/>
      <point x="880" y="686"/>
      <point x="650" y="682" type="curve"/>
      <point x="800" y="709"/>
      <point x="946" y="816"/>
      <point x="946" y="1016" type="curve" smooth="yes"/>
      <point x="946" y="1216"/>
      <point x="790" y="1306"/>
      <point x="504" y="1306" type="curve" smooth="yes"/>
      <point x="367" y="1306"/>
      <point x="227" y="1254"/>
      <point x="151" y="1246" type="curve"/>
      <point x="168" y="1009" type="line"/>
      <point x="266" y="1009" type="line"/>
      <point x="296" y="1154" type="line"/>
      <point x="327" y="1207"/>
      <point x="413" y="1236"/>
      <point x="523" y="1236" type="curve" smooth="yes"/>
      <point x="683" y="1236"/>
      <point x="778" y="1169"/>
      <point x="780" y="988" type="curve"/>
      <point x="780" y="806"/>
      <point x="630" y="691"/>
    </contour>
  </outline>
</glyph>
<glyph name="komilje-cy.sc" format="1">
  <advance width="1848"/>
  <outline>
    <contour>
      <point x="542" y="-144" type="move" name="mark0"/>
    </contour>
    <contour>
      <point x="1663" y="286" type="curve" smooth="yes"/>
      <point x="1663" y="615" type="line"/>
      <point x="1798" y="631" type="line"/>
      <point x="1798" y="696" type="line"/>
      <point x="1360" y="696" type="line"/>
      <point x="1360" y="631" type="line"/>
      <point x="1506" y="615" type="line"/>
      <point x="1506" y="330" type="line" smooth="yes"/>
      <point x="1506" y="140"/>
      <point x="1451" y="54"/>
      <point x="1284" y="54" type="curve" smooth="yes"/>
      <point x="1137" y="54"/>
      <point x="1090" y="138"/>
      <point x="1090" y="335" type="curve" smooth="yes"/>
      <point x="1090" y="1229" type="line"/>
      <point x="1261" y="1242" type="line"/>
      <point x="1261" y="1292" type="line"/>
      <point x="244" y="1292" type="line"/>
      <point x="244" y="1242" type="line"/>
      <point x="447" y="1229" type="line"/>
      <point x="447" y="1047" type="line" smooth="yes"/>
      <point x="447" y="587"/>
      <point x="392" y="306"/>
      <point x="301" y="170" type="curve"/>
      <point x="274" y="136"/>
      <point x="240" y="108"/>
      <point x="192" y="108" type="curve" smooth="yes"/>
      <point x="118" y="108"/>
      <point x="78" y="112"/>
      <point x="57" y="116" type="curve"/>
      <point x="69" y="0" type="line"/>
      <point x="92" y="-2"/>
      <point x="135" y="-9"/>
      <point x="192" y="-9" type="curve" smooth="yes"/>
      <point x="276" y="-9"/>
      <point x="340" y="24"/>
      <point x="393" y="103" type="curve" smooth="yes"/>
      <point x="498" y="264"/>
      <point x="548" y="587"/>
      <point x="548" y="1033" type="curve" smooth="yes"/>
      <point x="548" y="1229" type="line"/>
      <point x="934" y="1229" type="line"/>
      <point x="934" y="292" type="line" smooth="yes"/>
      <point x="934" y="104"/>
      <point x="1047" y="-14"/>
      <point x="1280" y="-14" type="curve" smooth="yes"/>
      <point x="1527" y="-14"/>
      <point x="1663" y="111"/>
    </contour>
  </outline>
</glyph>
<glyph name="komisje-cy.sc" format="1">
  <advance width="1359"/>
  <outline>
    <contour>
      <point x="700" y="-144" type="move" name="mark0"/>
    </contour>
    <contour>
      <point x="1172" y="286" type="curve" smooth="yes"/>
      <point x="1172" y="615" type="line"/>
      <point x="1307" y="631" type="line"/>
      <point x="1307" y="697" type="line"/>
      <point x="873" y="697" type="line"/>
      <point x="873" y="631" type="line"/>
      <point x="1017" y="615" type="line"/>
      <point x="1017" y="331" type="line" smooth="yes"/>
      <point x="1017" y="140"/>
      <point x="955" y="55"/>
      <point x="760" y="54" type="curve" smooth="yes"/>
      <point x="431" y="54"/>
      <point x="257" y="382"/>
      <point x="257" y="668" type="curve" smooth="yes"/>
      <point x="257" y="1039"/>
      <point x="463" y="1236"/>
      <point x="745" y="1236" type="curve" smooth="yes"/>
      <point x="915" y="1236"/>
      <point x="1006" y="1204"/>
      <point x="1029" y="1185" type="curve"/>
      <point x="1071" y="984" type="line"/>
      <point x="1168" y="984" type="line"/>
      <point x="1185" y="1252" type="line"/>
      <point x="1127" y="1264"/>
      <point x="952" y="1306"/>
      <point x="762" y="1306" type="curve" smooth="yes"/>
      <point x="388" y="1306"/>
      <point x="80" y="1048"/>
      <point x="80" y="629" type="curve" smooth="yes"/>
      <point x="80" y="291"/>
      <point x="347" y="-14"/>
      <point x="757" y="-14" type="curve" smooth="yes"/>
      <point x="1022" y="-14"/>
      <point x="1172" y="110"/>
    </contour>
  </outline>
</glyph>
<glyph name="komitje-cy.sc" format="1">
  <advance width="1487"/>
  <outline>
    <contour>
      <point x="676" y="-144" type="move" name="mark0"/>
    </contour>
    <contour>
      <point x="733" y="335" type="curve" smooth="yes"/>
      <point x="733" y="1238" type="line"/>
      <point x="1083" y="1238" type="line"/>
      <point x="1134" y="894" type="line"/>
      <point x="1236" y="894" type="line"/>
      <point x="1216" y="1292" type="line"/>
      <point x="105" y="1292" type="line"/>
      <point x="75" y="894" type="line"/>
      <point x="177" y="894" type="line"/>
      <point x="236" y="1238" type="line"/>
      <point x="575" y="1238" type="line"/>
      <point x="575" y="292" type="line" smooth="yes"/>
      <point x="575" y="106"/>
      <point x="690" y="-14"/>
      <point x="923" y="-14" type="curve" smooth="yes"/>
      <point x="1164" y="-14"/>
      <point x="1305" y="108"/>
      <point x="1305" y="286" type="curve" smooth="yes"/>
      <point x="1305" y="615" type="line"/>
      <point x="1437" y="631" type="line"/>
      <point x="1437" y="697" type="line"/>
      <point x="1003" y="697" type="line"/>
      <point x="1003" y="631" type="line"/>
      <point x="1149" y="615" type="line"/>
      <point x="1149" y="331" type="line" smooth="yes"/>
      <point x="1149" y="143"/>
      <point x="1094" y="54"/>
      <point x="927" y="54" type="curve" smooth="yes"/>
      <point x="775" y="54"/>
      <point x="733" y="145"/>
    </contour>
  </outline>
</glyph>
<glyph name="komizje-cy.sc" format="1">
  <advance width="1757"/>
  <outline>
    <contour>
      <point x="1572" y="286" type="curve" smooth="yes"/>
      <point x="1572" y="615" type="line"/>
      <point x="1707" y="631" type="line"/>
      <point x="1707" y="694" type="line"/>
      <point x="1273" y="694" type="line"/>
      <point x="1273" y="631" type="line"/>
      <point x="1417" y="615" type="line"/>
      <point x="1417" y="331" type="line" smooth="yes"/>
      <point x="1417" y="143"/>
      <point x="1364" y="54"/>
      <point x="1195" y="54" type="curve" smooth="yes"/>
      <point x="1062" y="54"/>
      <point x="999" y="119"/>
      <point x="999" y="335" type="curve" smooth="yes"/>
      <point x="999" y="543"/>
      <point x="881" y="684"/>
      <point x="650" y="682" type="curve"/>
      <point x="796" y="712"/>
      <point x="946" y="816"/>
      <point x="946" y="1016" type="curve" smooth="yes"/>
      <point x="946" y="1216"/>
      <point x="790" y="1306"/>
      <point x="504" y="1306" type="curve" smooth="yes"/>
      <point x="367" y="1306"/>
      <point x="227" y="1254"/>
      <point x="151" y="1246" type="curve"/>
      <point x="168" y="1009" type="line"/>
      <point x="266" y="1009" type="line"/>
      <point x="296" y="1154" type="line"/>
      <point x="327" y="1207"/>
      <point x="413" y="1236"/>
      <point x="523" y="1236" type="curve" smooth="yes"/>
      <point x="683" y="1236"/>
      <point x="778" y="1169"/>
      <point x="780" y="988" type="curve"/>
      <point x="780" y="806"/>
      <point x="630" y="691"/>
      <point x="481" y="691" type="curve" smooth="yes"/>
      <point x="371" y="691" type="line"/>
      <point x="371" y="630" type="line"/>
      <point x="502" y="630" type="line" smooth="yes"/>
      <point x="757" y="630"/>
      <point x="843" y="500"/>
      <point x="843" y="292" type="curve" smooth="yes"/>
      <point x="843" y="117"/>
      <point x="956" y="-14"/>
      <point x="1191" y="-14" type="curve" smooth="yes"/>
      <point x="1434" y="-14"/>
      <point x="1572" y="107"/>
    </contour>
  </outline>
</glyph>
<glyph name="lje-cy.sc" format="1">
  <advance width="1858"/>
  <outline>
    <contour>
      <point x="585" y="-144" type="move" name="mark0"/>
    </contour>
    <contour>
      <point x="1084" y="711" type="curve"/>
      <point x="1084" y="1228" type="line"/>
      <point x="1255" y="1242" type="line"/>
      <point x="1255" y="1292" type="line"/>
      <point x="275" y="1292" type="line"/>
      <point x="275" y="1242" type="line"/>
      <point x="445" y="1227" type="line"/>
      <point x="445" y="1047" type="line" smooth="yes"/>
      <point x="445" y="591"/>
      <point x="392" y="303"/>
      <point x="299" y="166" type="curve"/>
      <point x="270" y="125"/>
      <point x="234" y="107"/>
      <point x="192" y="107" type="curve" smooth="yes"/>
      <point x="116" y="107"/>
      <point x="78" y="111"/>
      <point x="57" y="117" type="curve"/>
      <point x="67" y="0" type="line"/>
      <point x="90" y="-2"/>
      <point x="135" y="-8"/>
      <point x="192" y="-8" type="curve" smooth="yes"/>
      <point x="279" y="-8"/>
      <point x="340" y="24"/>
      <point x="391" y="99" type="curve" smooth="yes"/>
      <point x="496" y="265"/>
      <point x="547" y="578"/>
      <point x="547" y="1033" type="curve" smooth="yes"/>
      <point x="547" y="1229" type="line"/>
      <point x="932" y="1229" type="line"/>
      <point x="930" y="68" type="line"/>
      <point x="744" y="52" type="line"/>
      <point x="744" y="0" type="line"/>
      <point x="1011" y="0" type="line" smooth="yes"/>
      <point x="1089" y="0"/>
      <point x="1257" y="-14"/>
      <point x="1301" y="-14" type="curve" smooth="yes"/>
      <point x="1584" y="-14"/>
      <point x="1783" y="114"/>
      <point x="1783" y="378" type="curve" smooth="yes"/>
      <point x="1783" y="600"/>
      <point x="1622" y="732"/>
      <point x="1324" y="732" type="curve" smooth="yes"/>
      <point x="1232" y="732"/>
      <point x="1124" y="720"/>
    </contour>
    <contour>
      <point x="1084" y="60" type="curve"/>
      <point x="1084" y="641" type="line"/>
      <point x="1117" y="649"/>
      <point x="1204" y="654"/>
      <point x="1282" y="654" type="curve" smooth="yes"/>
      <point x="1492" y="654"/>
      <point x="1618" y="560"/>
      <point x="1618" y="370" type="curve" smooth="yes"/>
      <point x="1618" y="142"/>
      <point x="1494" y="44"/>
      <point x="1283" y="44" type="curve" smooth="yes"/>
      <point x="1187" y="44"/>
      <point x="1140" y="50"/>
    </contour>
  </outline>
</glyph>
<glyph name="nje-cy.sc" format="1">
  <advance width="1980"/>
  <outline>
    <contour>
      <point x="763" y="-144" type="move" name="mark0"/>
    </contour>
    <contour>
      <point x="1447" y="733" type="curve" smooth="yes"/>
      <point x="1210" y="733" type="line"/>
      <point x="1210" y="1226" type="line"/>
      <point x="1370" y="1246" type="line"/>
      <point x="1370" y="1292" type="line"/>
      <point x="898" y="1292" type="line"/>
      <point x="898" y="1246" type="line"/>
      <point x="1054" y="1227" type="line"/>
      <point x="1054" y="700" type="line"/>
      <point x="419" y="700" type="line"/>
      <point x="419" y="1228" type="line"/>
      <point x="577" y="1242" type="line"/>
      <point x="577" y="1292" type="line"/>
      <point x="117" y="1292" type="line"/>
      <point x="117" y="1242" type="line"/>
      <point x="265" y="1227" type="line"/>
      <point x="265" y="66" type="line"/>
      <point x="105" y="52" type="line"/>
      <point x="105" y="0" type="line"/>
      <point x="592" y="0" type="line"/>
      <point x="592" y="52" type="line"/>
      <point x="419" y="63" type="line"/>
      <point x="419" y="634" type="line"/>
      <point x="1054" y="634" type="line"/>
      <point x="1054" y="63" type="line"/>
      <point x="905" y="52" type="line"/>
      <point x="905" y="0" type="line"/>
      <point x="1100" y="0" type="line" smooth="yes"/>
      <point x="1174" y="0"/>
      <point x="1363" y="-20"/>
      <point x="1432" y="-20" type="curve" smooth="yes"/>
      <point x="1715" y="-20"/>
      <point x="1907" y="93"/>
      <point x="1907" y="380" type="curve" smooth="yes"/>
      <point x="1907" y="602"/>
      <point x="1744" y="733"/>
    </contour>
    <contour>
      <point x="1210" y="77" type="curve"/>
      <point x="1210" y="652" type="line"/>
      <point x="1406" y="652" type="line" smooth="yes"/>
      <point x="1614" y="652"/>
      <point x="1743" y="548"/>
      <point x="1743" y="371" type="curve" smooth="yes"/>
      <point x="1743" y="140"/>
      <point x="1615" y="51"/>
      <point x="1406" y="51" type="curve" smooth="yes"/>
      <point x="1320" y="51"/>
      <point x="1259" y="71"/>
    </contour>
  </outline>
</glyph>
<glyph name="obarred-cy.sc" format="1">
  <advance width="1316"/>
  <outline>
    <contour>
      <point x="677" y="1263" type="move" name="top"/>
    </contour>
    <contour>
      <point x="648" y="-144" type="move" name="mark0"/>
    </contour>
    <contour>
      <point x="675" y="1306" type="curve" smooth="yes"/>
      <point x="335" y="1306"/>
      <point x="67" y="1046"/>
      <point x="67" y="633" type="curve" smooth="yes"/>
      <point x="67" y="247"/>
      <point x="273" y="-28"/>
      <point x="644" y="-20" type="curve" smooth="yes"/>
      <point x="982" y="-12"/>
      <point x="1248" y="243"/>
      <point x="1248" y="653" type="curve" smooth="yes"/>
      <point x="1248" y="1046"/>
      <point x="1047" y="1307"/>
    </contour>
    <contour>
      <point x="240" y="616" type="curve"/>
      <point x="1071" y="616" type="line"/>
      <point x="1056" y="237"/>
      <point x="890" y="44"/>
      <point x="654" y="44" type="curve" smooth="yes"/>
      <point x="399" y="44"/>
      <point x="250" y="313"/>
    </contour>
    <contour>
      <point x="1071" y="683" type="curve"/>
      <point x="240" y="683" type="line"/>
      <point x="256" y="1042"/>
      <point x="416" y="1241"/>
      <point x="660" y="1241" type="curve" smooth="yes"/>
      <point x="915" y="1241"/>
      <point x="1060" y="978"/>
    </contour>
  </outline>
</glyph>
<glyph name="pe-cy.sc" format="1">
  <advance width="1467"/>
  <outline>
    <contour>
      <point x="1034" y="0" type="move" name="bottomright"/>
    </contour>
    <contour>
      <point x="107" y="1292" type="line"/>
      <point x="107" y="1242" type="line"/>
      <point x="267" y="1228" type="line"/>
      <point x="267" y="66" type="line"/>
      <point x="117" y="52" type="line"/>
      <point x="117" y="0" type="line"/>
      <point x="598" y="0" type="line"/>
      <point x="598" y="52" type="line"/>
      <point x="421" y="66" type="line"/>
      <point x="421" y="1219" type="line"/>
      <point x="1048" y="1219" type="line"/>
      <point x="1048" y="69" type="line"/>
      <point x="890" y="52" type="line"/>
      <point x="890" y="0" type="line"/>
      <point x="1377" y="0" type="line"/>
      <point x="1377" y="52" type="line"/>
      <point x="1202" y="68" type="line"/>
      <point x="1202" y="1224" type="line"/>
      <point x="1362" y="1244" type="line"/>
      <point x="1362" y="1292" type="line"/>
    </contour>
  </outline>
</glyph>
<glyph name="pedescender-cy.sc" format="1">
  <advance width="1498"/>
  <outline>
    <contour>
      <point x="1417" y="68" type="curve"/>
      <point x="1202" y="68" type="line"/>
      <point x="1202" y="1224" type="line"/>
      <point x="1362" y="1244" type="line"/>
      <point x="1362" y="1292" type="line"/>
      <point x="107" y="1292" type="line"/>
      <point x="107" y="1242" type="line"/>
      <point x="267" y="1228" type="line"/>
      <point x="267" y="66" type="line"/>
      <point x="117" y="52" type="line"/>
      <point x="117" y="0" type="line"/>
      <point x="598" y="0" type="line"/>
      <point x="598" y="52" type="line"/>
      <point x="421" y="66" type="line"/>
      <point x="421" y="1219" type="line"/>
      <point x="1048" y="1219" type="line"/>
      <point x="1048" y="69" type="line"/>
      <point x="890" y="52" type="line"/>
      <point x="890" y="0" type="line"/>
      <point x="1249" y="0" type="line"/>
      <point x="1253" y="1"/>
      <point x="1268" y="-269"/>
      <point x="1268" y="-292" type="curve"/>
      <point x="1370" y="-292" type="line"/>
      <point x="1371" y="-299"/>
      <point x="1417" y="128"/>
    </contour>
  </outline>
</glyph>
<glyph name="pemiddlehook-cy.sc" format="1">
  <advance width="1976"/>
  <outline>
    <contour>
      <point x="755" y="-144" type="move" name="mark0"/>
    </contour>
    <contour>
      <point x="1202" y="685" type="curve"/>
      <point x="1202" y="1224" type="line"/>
      <point x="1362" y="1244" type="line"/>
      <point x="1362" y="1292" type="line"/>
      <point x="107" y="1292" type="line"/>
      <point x="107" y="1242" type="line"/>
      <point x="267" y="1228" type="line"/>
      <point x="267" y="66" type="line"/>
      <point x="117" y="52" type="line"/>
      <point x="117" y="0" type="line"/>
      <point x="598" y="0" type="line"/>
      <point x="598" y="52" type="line"/>
      <point x="421" y="66" type="line"/>
      <point x="421" y="1219" type="line"/>
      <point x="1048" y="1219" type="line"/>
      <point x="1048" y="69" type="line"/>
      <point x="890" y="52" type="line"/>
      <point x="890" y="0" type="line"/>
      <point x="1377" y="0" type="line"/>
      <point x="1377" y="52" type="line"/>
      <point x="1202" y="68" type="line"/>
      <point x="1202" y="628" type="line"/>
      <point x="1267" y="648"/>
      <point x="1343" y="661"/>
      <point x="1448" y="661" type="curve" smooth="yes"/>
      <point x="1657" y="661"/>
      <point x="1724" y="540"/>
      <point x="1724" y="311" type="curve" smooth="yes"/>
      <point x="1724" y="-64"/>
      <point x="1648" y="-260"/>
      <point x="1452" y="-260" type="curve" smooth="yes"/>
      <point x="1422" y="-260"/>
      <point x="1386" y="-267"/>
      <point x="1368" y="-262" type="curve"/>
      <point x="1370" y="-331" type="line"/>
      <point x="1393" y="-340"/>
      <point x="1444" y="-337"/>
      <point x="1472" y="-337" type="curve" smooth="yes"/>
      <point x="1746" y="-337"/>
      <point x="1884" y="-34"/>
      <point x="1884" y="302" type="curve" smooth="yes"/>
      <point x="1884" y="509"/>
      <point x="1820" y="737"/>
      <point x="1485" y="737" type="curve" smooth="yes"/>
      <point x="1377" y="737"/>
      <point x="1254" y="711"/>
    </contour>
  </outline>
</glyph>
<glyph name="reversedze-cy.sc" format="1">
  <advance width="1083"/>
  <outline>
    <contour>
      <point x="953" y="46" type="curve"/>
      <point x="999" y="248" type="line"/>
      <point x="907" y="266" type="line"/>
      <point x="833" y="120" type="line"/>
      <point x="787" y="80"/>
      <point x="692" y="49"/>
      <point x="597" y="49" type="curve" smooth="yes"/>
      <point x="406" y="49"/>
      <point x="294" y="139"/>
      <point x="294" y="338" type="curve" smooth="yes"/>
      <point x="294" y="469"/>
      <point x="357" y="640"/>
      <point x="616" y="640" type="curve"/>
      <point x="750" y="635" type="line"/>
      <point x="750" y="714" type="line"/>
      <point x="638" y="700" type="line"/>
      <point x="486" y="700"/>
      <point x="322" y="759"/>
      <point x="322" y="950" type="curve" smooth="yes"/>
      <point x="322" y="1131"/>
      <point x="423" y="1239"/>
      <point x="593" y="1239" type="curve" smooth="yes"/>
      <point x="707" y="1239"/>
      <point x="791" y="1205"/>
      <point x="819" y="1185" type="curve"/>
      <point x="852" y="1000" type="line"/>
      <point x="950" y="1000" type="line"/>
      <point x="965" y="1251" type="line"/>
      <point x="889" y="1272"/>
      <point x="720" y="1306"/>
      <point x="606" y="1306" type="curve" smooth="yes"/>
      <point x="324" y="1306"/>
      <point x="155" y="1186"/>
      <point x="155" y="974" type="curve" smooth="yes"/>
      <point x="155" y="779"/>
      <point x="318" y="697"/>
      <point x="468" y="672" type="curve"/>
      <point x="242" y="662"/>
      <point x="113" y="518"/>
      <point x="113" y="323" type="curve" smooth="yes"/>
      <point x="113" y="111"/>
      <point x="261" y="-20"/>
      <point x="589" y="-20" type="curve" smooth="yes"/>
      <point x="756" y="-20"/>
      <point x="860" y="43"/>
    </contour>
  </outline>
</glyph>
<glyph name="semisoftsign-cy.sc" format="1">
  <advance width="1195"/>
  <outline>
    <contour>
      <point x="419" y="792" type="curve"/>
      <point x="419" y="958" type="line"/>
      <point x="649" y="958" type="line"/>
      <point x="649" y="1025" type="line"/>
      <point x="419" y="1025" type="line"/>
      <point x="419" y="1227" type="line"/>
      <point x="594" y="1246" type="line"/>
      <point x="594" y="1292" type="line"/>
      <point x="113" y="1292" type="line"/>
      <point x="113" y="1246" type="line"/>
      <point x="265" y="1226" type="line"/>
      <point x="265" y="1025" type="line"/>
      <point x="79" y="1025" type="line"/>
      <point x="79" y="958" type="line"/>
      <point x="265" y="958" type="line"/>
      <point x="265" y="66" type="line"/>
      <point x="109" y="52" type="line"/>
      <point x="109" y="0" type="line"/>
      <point x="348" y="0" type="line" smooth="yes"/>
      <point x="427" y="0"/>
      <point x="589" y="-14"/>
      <point x="636" y="-14" type="curve" smooth="yes"/>
      <point x="921" y="-14"/>
      <point x="1120" y="125"/>
      <point x="1120" y="408" type="curve" smooth="yes"/>
      <point x="1120" y="651"/>
      <point x="957" y="791"/>
      <point x="663" y="791" type="curve"/>
      <point x="584" y="791"/>
      <point x="498" y="791"/>
    </contour>
    <contour>
      <point x="419" y="65" type="curve"/>
      <point x="419" y="719" type="line"/>
      <point x="486" y="718"/>
      <point x="554" y="716"/>
      <point x="619" y="716" type="curve" smooth="yes"/>
      <point x="827" y="716"/>
      <point x="955" y="614"/>
      <point x="955" y="402" type="curve" smooth="yes"/>
      <point x="955" y="148"/>
      <point x="829" y="50"/>
      <point x="620" y="50" type="curve" smooth="yes"/>
      <point x="517" y="50"/>
      <point x="473" y="57"/>
    </contour>
  </outline>
</glyph>
<glyph name="sha-cy.sc" format="1">
  <advance width="1993"/>
  <outline>
    <contour>
      <point x="709" y="-144" type="move" name="mark0"/>
    </contour>
    <contour>
      <point x="111" y="1292" type="line"/>
      <point x="111" y="1242" type="line"/>
      <point x="267" y="1227" type="line"/>
      <point x="267" y="68" type="line"/>
      <point x="88" y="52" type="line"/>
      <point x="88" y="0" type="line"/>
      <point x="1903" y="0" type="line"/>
      <point x="1903" y="52" type="line"/>
      <point x="1726" y="69" type="line"/>
      <point x="1726" y="1227" type="line"/>
      <point x="1880" y="1242" type="line"/>
      <point x="1880" y="1292" type="line"/>
      <point x="1433" y="1292" type="line"/>
      <point x="1433" y="1242" type="line"/>
      <point x="1571" y="1228" type="line"/>
      <point x="1571" y="66" type="line"/>
      <point x="1074" y="66" type="line"/>
      <point x="1074" y="1227" type="line"/>
      <point x="1221" y="1242" type="line"/>
      <point x="1221" y="1292" type="line"/>
      <point x="785" y="1292" type="line"/>
      <point x="785" y="1242" type="line"/>
      <point x="926" y="1227" type="line"/>
      <point x="926" y="66" type="line"/>
      <point x="419" y="66" type="line"/>
      <point x="419" y="1224" type="line"/>
      <point x="591" y="1242" type="line"/>
      <point x="591" y="1292" type="line"/>
    </contour>
  </outline>
</glyph>
<glyph name="shcha-cy.sc" format="1">
  <advance width="2010"/>
  <outline>
    <contour>
      <point x="1946" y="68" type="curve"/>
      <point x="1726" y="68" type="line"/>
      <point x="1726" y="1227" type="line"/>
      <point x="1880" y="1242" type="line"/>
      <point x="1880" y="1292" type="line"/>
      <point x="1433" y="1292" type="line"/>
      <point x="1433" y="1242" type="line"/>
      <point x="1571" y="1228" type="line"/>
      <point x="1571" y="66" type="line"/>
      <point x="1074" y="66" type="line"/>
      <point x="1074" y="1227" type="line"/>
      <point x="1221" y="1242" type="line"/>
      <point x="1221" y="1292" type="line"/>
      <point x="785" y="1292" type="line"/>
      <point x="785" y="1242" type="line"/>
      <point x="926" y="1227" type="line"/>
      <point x="926" y="66" type="line"/>
      <point x="419" y="66" type="line"/>
      <point x="419" y="1227" type="line"/>
      <point x="591" y="1242" type="line"/>
      <point x="591" y="1292" type="line"/>
      <point x="111" y="1292" type="line"/>
      <point x="111" y="1242" type="line"/>
      <point x="267" y="1227" type="line"/>
      <point x="267" y="68" type="line"/>
      <point x="88" y="52" type="line"/>
      <point x="88" y="0" type="line"/>
      <point x="1778" y="0" type="line"/>
      <point x="1782" y="5"/>
      <point x="1795" y="-277"/>
      <point x="1797" y="-292" type="curve"/>
      <point x="1899" y="-292" type="line"/>
      <point x="1916" y="-101"/>
      <point x="1933" y="-40"/>
    </contour>
  </outline>
</glyph>
<glyph name="shha-cy.sc" format="1">
  <advance width="1252"/>
  <outline>
    <contour>
      <point x="40" y="1124" type="move" name="topleft"/>
    </contour>
    <contour>
      <point x="621" y="476" type="move" name="center"/>
    </contour>
    <contour>
      <point x="675" y="-168" type="move" name="bottom"/>
    </contour>
    <contour>
      <point x="412" y="690" type="curve"/>
      <point x="412" y="1223" type="line"/>
      <point x="602" y="1240" type="line"/>
      <point x="602" y="1292" type="line"/>
      <point x="90" y="1292" type="line"/>
      <point x="90" y="1239" type="line"/>
      <point x="257" y="1223" type="line"/>
      <point x="257" y="67" type="line"/>
      <point x="92" y="50" type="line"/>
      <point x="92" y="0" type="line"/>
      <point x="579" y="0" type="line"/>
      <point x="579" y="50" type="line"/>
      <point x="412" y="65" type="line"/>
      <point x="412" y="635" type="line"/>
      <point x="463" y="661"/>
      <point x="602" y="691"/>
      <point x="698" y="691" type="curve" smooth="yes"/>
      <point x="936" y="691"/>
      <point x="962" y="641"/>
      <point x="962" y="322" type="curve" smooth="yes"/>
      <point x="962" y="68" type="line"/>
      <point x="798" y="50" type="line"/>
      <point x="798" y="0" type="line"/>
      <point x="1233" y="0" type="line"/>
      <point x="1233" y="50" type="line"/>
      <point x="1118" y="67" type="line"/>
      <point x="1118" y="364" type="line" smooth="yes"/>
      <point x="1118" y="615"/>
      <point x="1050" y="764"/>
      <point x="775" y="764" type="curve" smooth="yes"/>
      <point x="661" y="764"/>
      <point x="503" y="736"/>
    </contour>
  </outline>
</glyph>
<glyph name="shhadescender-cy.sc" format="1">
  <advance width="1391"/>
  <outline>
    <contour>
      <point x="36" y="1292" type="move" name="topleft"/>
    </contour>
    <contour>
      <point x="617" y="646" type="move" name="center"/>
    </contour>
    <contour>
      <point x="671" y="0" type="move" name="bottom"/>
    </contour>
    <contour>
      <point x="88" y="0" type="line"/>
      <point x="575" y="0" type="line"/>
      <point x="575" y="50" type="line"/>
      <point x="408" y="67" type="line"/>
      <point x="408" y="635" type="line"/>
      <point x="459" y="661"/>
      <point x="593" y="693"/>
      <point x="694" y="693" type="curve" smooth="yes"/>
      <point x="932" y="693"/>
      <point x="958" y="643"/>
      <point x="958" y="325" type="curve" smooth="yes"/>
      <point x="958" y="70" type="line"/>
      <point x="795" y="52" type="line"/>
      <point x="795" y="0" type="line"/>
      <point x="1159" y="0" type="line"/>
      <point x="1163" y="0"/>
      <point x="1178" y="-273"/>
      <point x="1178" y="-292" type="curve"/>
      <point x="1280" y="-292" type="line"/>
      <point x="1282" y="-299"/>
      <point x="1327" y="130"/>
      <point x="1327" y="68" type="curve"/>
      <point x="1114" y="69" type="line"/>
      <point x="1114" y="364" type="line"/>
      <point x="1114" y="670"/>
      <point x="1014" y="764"/>
      <point x="771" y="764" type="curve" smooth="yes"/>
      <point x="663" y="764"/>
      <point x="501" y="739"/>
      <point x="408" y="692" type="curve"/>
      <point x="408" y="1227" type="line"/>
      <point x="598" y="1240" type="line"/>
      <point x="598" y="1292" type="line"/>
      <point x="86" y="1292" type="line"/>
      <point x="86" y="1242" type="line"/>
      <point x="253" y="1227" type="line"/>
      <point x="253" y="66" type="line"/>
      <point x="88" y="50" type="line"/>
    </contour>
  </outline>
</glyph>
<glyph name="softsign-cy.sc" format="1">
  <advance width="1193"/>
  <outline>
    <contour>
      <point x="419" y="792" type="curve"/>
      <point x="419" y="1227" type="line"/>
      <point x="592" y="1246" type="line"/>
      <point x="592" y="1292" type="line"/>
      <point x="113" y="1292" type="line"/>
      <point x="113" y="1246" type="line"/>
      <point x="265" y="1226" type="line"/>
      <point x="265" y="66" type="line"/>
      <point x="107" y="52" type="line"/>
      <point x="107" y="0" type="line"/>
      <point x="348" y="0" type="line"/>
      <point x="425" y="0"/>
      <point x="589" y="-14"/>
      <point x="636" y="-14" type="curve" smooth="yes"/>
      <point x="919" y="-14"/>
      <point x="1119" y="122"/>
      <point x="1119" y="408" type="curve" smooth="yes"/>
      <point x="1119" y="651"/>
      <point x="957" y="791"/>
      <point x="661" y="791" type="curve" smooth="yes"/>
      <point x="581" y="791"/>
      <point x="498" y="791"/>
    </contour>
    <contour>
      <point x="419" y="65" type="curve"/>
      <point x="419" y="719" type="line"/>
      <point x="484" y="718"/>
      <point x="553" y="716"/>
      <point x="617" y="716" type="curve" smooth="yes"/>
      <point x="827" y="716"/>
      <point x="955" y="614"/>
      <point x="955" y="402" type="curve" smooth="yes"/>
      <point x="955" y="148"/>
      <point x="829" y="50"/>
      <point x="618" y="50" type="curve" smooth="yes"/>
      <point x="517" y="50"/>
      <point x="471" y="57"/>
    </contour>
  </outline>
</glyph>
<glyph name="tedescender-cy.sc" format="1">
  <advance width="1325"/>
  <outline>
    <contour>
      <point x="1044" y="68" type="curve"/>
      <point x="742" y="68" type="line"/>
      <point x="742" y="1240" type="line"/>
      <point x="1089" y="1230" type="line"/>
      <point x="1140" y="897" type="line"/>
      <point x="1240" y="897" type="line"/>
      <point x="1220" y="1292" type="line"/>
      <point x="105" y="1292" type="line"/>
      <point x="75" y="897" type="line"/>
      <point x="179" y="897" type="line"/>
      <point x="237" y="1230" type="line"/>
      <point x="578" y="1240" type="line"/>
      <point x="578" y="68" type="line"/>
      <point x="341" y="52" type="line"/>
      <point x="341" y="0" type="line"/>
      <point x="880" y="0" type="line"/>
      <point x="885" y="-115"/>
      <point x="889" y="-167"/>
      <point x="895" y="-292" type="curve"/>
      <point x="995" y="-292" type="line"/>
      <point x="1012" y="-112"/>
      <point x="1027" y="-84"/>
    </contour>
  </outline>
</glyph>
<glyph name="tetse-cy.sc" format="1">
  <advance width="1764"/>
  <outline>
    <contour>
      <point x="1717" y="68" type="curve"/>
      <point x="1480" y="68" type="line"/>
      <point x="1480" y="1228" type="line"/>
      <point x="1630" y="1242" type="line"/>
      <point x="1630" y="1292" type="line"/>
      <point x="1181" y="1292" type="line"/>
      <point x="1181" y="1242" type="line"/>
      <point x="1323" y="1228" type="line"/>
      <point x="1323" y="73" type="line"/>
      <point x="624" y="73" type="line"/>
      <point x="624" y="1233" type="line"/>
      <point x="864" y="1228" type="line"/>
      <point x="913" y="909" type="line"/>
      <point x="1015" y="909" type="line"/>
      <point x="996" y="1292" type="line"/>
      <point x="96" y="1292" type="line"/>
      <point x="75" y="910" type="line"/>
      <point x="179" y="910" type="line"/>
      <point x="228" y="1228" type="line"/>
      <point x="470" y="1231" type="line"/>
      <point x="470" y="66" type="line"/>
      <point x="322" y="52" type="line"/>
      <point x="322" y="0" type="line"/>
      <point x="1549" y="0" type="line"/>
      <point x="1551" y="5"/>
      <point x="1566" y="-256"/>
      <point x="1566" y="-284" type="curve"/>
      <point x="1668" y="-284" type="line"/>
      <point x="1683" y="-108"/>
      <point x="1700" y="-58"/>
    </contour>
  </outline>
</glyph>
<glyph name="tse-cy.sc" format="1">
  <advance width="1467"/>
  <outline>
    <contour>
      <point x="1404" y="68" type="curve"/>
      <point x="1189" y="68" type="line"/>
      <point x="1189" y="1227" type="line"/>
      <point x="1341" y="1242" type="line"/>
      <point x="1341" y="1292" type="line"/>
      <point x="892" y="1292" type="line"/>
      <point x="892" y="1242" type="line"/>
      <point x="1033" y="1227" type="line"/>
      <point x="1033" y="73" type="line"/>
      <point x="419" y="73" type="line"/>
      <point x="419" y="1228" type="line"/>
      <point x="604" y="1242" type="line"/>
      <point x="604" y="1292" type="line"/>
      <point x="109" y="1292" type="line"/>
      <point x="109" y="1242" type="line"/>
      <point x="267" y="1227" type="line"/>
      <point x="267" y="71" type="line"/>
      <point x="90" y="51" type="line"/>
      <point x="90" y="0" type="line"/>
      <point x="1236" y="0" type="line"/>
      <point x="1239" y="1"/>
      <point x="1254" y="-279"/>
      <point x="1254" y="-292" type="curve"/>
      <point x="1356" y="-292" type="line"/>
      <point x="1358" y="-301"/>
      <point x="1404" y="130"/>
    </contour>
  </outline>
</glyph>
<glyph name="tshe-cy.sc" format="1">
  <advance width="1582"/>
  <outline>
    <contour>
      <point x="631" y="-144" type="move" name="mark0"/>
    </contour>
    <contour>
      <point x="742" y="656" type="curve"/>
      <point x="742" y="1238" type="line"/>
      <point x="1133" y="1229" type="line"/>
      <point x="1169" y="892" type="line"/>
      <point x="1271" y="892" type="line"/>
      <point x="1271" y="1292" type="line"/>
      <point x="107" y="1292" type="line"/>
      <point x="84" y="892" type="line"/>
      <point x="188" y="892" type="line"/>
      <point x="240" y="1227" type="line"/>
      <point x="584" y="1237" type="line"/>
      <point x="584" y="68" type="line"/>
      <point x="341" y="52" type="line"/>
      <point x="341" y="0" type="line"/>
      <point x="927" y="0" type="line"/>
      <point x="927" y="52" type="line"/>
      <point x="742" y="68" type="line"/>
      <point x="742" y="601" type="line"/>
      <point x="796" y="637"/>
      <point x="895" y="668"/>
      <point x="1036" y="668" type="curve" smooth="yes"/>
      <point x="1247" y="668"/>
      <point x="1275" y="488"/>
      <point x="1275" y="308" type="curve" smooth="yes"/>
      <point x="1275" y="66" type="line"/>
      <point x="1137" y="52" type="line"/>
      <point x="1137" y="0" type="line"/>
      <point x="1574" y="0" type="line"/>
      <point x="1574" y="52" type="line"/>
      <point x="1430" y="66" type="line"/>
      <point x="1430" y="354" type="line" smooth="yes"/>
      <point x="1430" y="603"/>
      <point x="1350" y="737"/>
      <point x="1064" y="737" type="curve" smooth="yes"/>
      <point x="971" y="737"/>
      <point x="816" y="700"/>
    </contour>
  </outline>
</glyph>
<glyph name="u-cy.sc" format="1">
  <advance width="1232"/>
  <outline>
    <contour>
      <point x="616" y="1263" type="move" name="top"/>
    </contour>
    <contour>
      <point x="712" y="257" type="curve"/>
      <point x="1110" y="1229" type="line"/>
      <point x="1203" y="1242" type="line"/>
      <point x="1203" y="1292" type="line"/>
      <point x="819" y="1292" type="line"/>
      <point x="819" y="1242" type="line"/>
      <point x="985" y="1227" type="line"/>
      <point x="737" y="535" type="line"/>
      <point x="674" y="353" type="line"/>
      <point x="615" y="533" type="line"/>
      <point x="299" y="1229" type="line"/>
      <point x="486" y="1242" type="line"/>
      <point x="486" y="1292" type="line"/>
      <point x="29" y="1292" type="line"/>
      <point x="29" y="1242" type="line"/>
      <point x="128" y="1227" type="line"/>
      <point x="599" y="289" type="line"/>
      <point x="556" y="146"/>
      <point x="510" y="90"/>
      <point x="400" y="90" type="curve" smooth="yes"/>
      <point x="383" y="90"/>
      <point x="278" y="93"/>
      <point x="272" y="96" type="curve"/>
      <point x="272" y="9" type="line"/>
      <point x="309" y="-7"/>
      <point x="361" y="-20"/>
      <point x="424" y="-20" type="curve" smooth="yes"/>
      <point x="612" y="-20"/>
      <point x="665" y="178"/>
    </contour>
  </outline>
</glyph>
<glyph name="ustraitstroke-cy.sc" format="1">
  <advance width="1262"/>
  <outline>
    <contour>
      <point x="82" y="1292" type="move" name="topleft"/>
    </contour>
    <contour>
      <point x="652" y="471" type="move" name="center"/>
    </contour>
    <contour>
      <point x="631" y="0" type="move" name="bottom"/>
    </contour>
    <contour>
      <point x="633" y="1292" type="move" name="top"/>
    </contour>
    <contour>
      <point x="652" y="471" type="move" name="_center"/>
    </contour>
    <contour>
      <point x="601" y="-144" type="move" name="mark0"/>
    </contour>
    <contour>
      <point x="562" y="69" type="line"/>
      <point x="360" y="52" type="line"/>
      <point x="360" y="0" type="line"/>
      <point x="929" y="0" type="line"/>
      <point x="929" y="52" type="line"/>
      <point x="721" y="69" type="line"/>
      <point x="721" y="482" type="line"/>
      <point x="1113" y="1225" type="line"/>
      <point x="1233" y="1242" type="line"/>
      <point x="1233" y="1292" type="line"/>
      <point x="835" y="1292" type="line"/>
      <point x="835" y="1242" type="line"/>
      <point x="989" y="1229" type="line"/>
      <point x="726" y="683" type="line"/>
      <point x="657" y="530" type="line"/>
      <point x="592" y="683" type="line"/>
      <point x="318" y="1229" type="line"/>
      <point x="470" y="1242" type="line"/>
      <point x="470" y="1292" type="line"/>
      <point x="29" y="1292" type="line"/>
      <point x="29" y="1242" type="line"/>
      <point x="141" y="1224" type="line"/>
      <point x="562" y="480" type="line"/>
    </contour>
    <contour>
      <point x="1019" y="513" type="line"/>
      <point x="284" y="513" type="line"/>
      <point x="284" y="453" type="line"/>
      <point x="1019" y="453" type="line"/>
    </contour>
  </outline>
</glyph>
<glyph name="yat-cy.sc" format="1">
  <advance width="1366"/>
  <outline>
    <contour>
      <point x="605" y="675" type="curve"/>
      <point x="605" y="1066" type="line"/>
      <point x="917" y="1048" type="line"/>
      <point x="957" y="893" type="line"/>
      <point x="1063" y="893" type="line"/>
      <point x="1044" y="1114" type="line"/>
      <point x="605" y="1114" type="line"/>
      <point x="605" y="1292" type="line"/>
      <point x="772" y="1314" type="line"/>
      <point x="772" y="1356" type="line"/>
      <point x="287" y="1356" type="line"/>
      <point x="287" y="1314" type="line"/>
      <point x="451" y="1293" type="line"/>
      <point x="451" y="1114" type="line"/>
      <point x="27" y="1114" type="line"/>
      <point x="4" y="893" type="line"/>
      <point x="114" y="893" type="line"/>
      <point x="154" y="1048" type="line"/>
      <point x="451" y="1066" type="line"/>
      <point x="451" y="66" type="line"/>
      <point x="280" y="52" type="line"/>
      <point x="280" y="0" type="line"/>
      <point x="531" y="0" type="line" smooth="yes"/>
      <point x="608" y="0"/>
      <point x="759" y="-15"/>
      <point x="808" y="-15" type="curve" smooth="yes"/>
      <point x="1091" y="-15"/>
      <point x="1291" y="128"/>
      <point x="1291" y="351" type="curve" smooth="yes"/>
      <point x="1291" y="533"/>
      <point x="1160" y="693"/>
      <point x="833" y="693" type="curve" smooth="yes"/>
      <point x="750" y="693"/>
      <point x="649" y="681"/>
    </contour>
    <contour>
      <point x="605" y="70" type="curve"/>
      <point x="605" y="617" type="line"/>
      <point x="641" y="625"/>
      <point x="729" y="626"/>
      <point x="792" y="626" type="curve" smooth="yes"/>
      <point x="993" y="626"/>
      <point x="1125" y="523"/>
      <point x="1125" y="343" type="curve" smooth="yes"/>
      <point x="1125" y="150"/>
      <point x="995" y="49"/>
      <point x="790" y="49" type="curve" smooth="yes"/>
      <point x="700" y="49"/>
      <point x="651" y="59"/>
    </contour>
  </outline>
</glyph>
<glyph name="yusbig-cy.sc" format="1">
  <advance width="1917"/>
  <outline>
    <contour>
      <point x="751" y="601" type="curve" smooth="yes"/>
      <point x="884" y="601" type="line"/>
      <point x="884" y="68" type="line"/>
      <point x="730" y="52" type="line"/>
      <point x="730" y="0" type="line"/>
      <point x="1193" y="0" type="line"/>
      <point x="1193" y="53" type="line"/>
      <point x="1033" y="68" type="line"/>
      <point x="1033" y="601" type="line"/>
      <point x="1165" y="601" type="line" smooth="yes"/>
      <point x="1314" y="601"/>
      <point x="1565" y="0"/>
      <point x="1690" y="0" type="curve" smooth="yes"/>
      <point x="1884" y="0" type="line"/>
      <point x="1884" y="52" type="line"/>
      <point x="1814" y="68" type="line" smooth="yes"/>
      <point x="1713" y="90"/>
      <point x="1452" y="663"/>
      <point x="1244" y="663" type="curve" smooth="yes"/>
      <point x="1078" y="663" type="line"/>
      <point x="1536" y="1234" type="line"/>
      <point x="1527" y="1292" type="line"/>
      <point x="390" y="1292" type="line"/>
      <point x="381" y="1234" type="line"/>
      <point x="837" y="663" type="line"/>
      <point x="671" y="663" type="line" smooth="yes"/>
      <point x="481" y="663"/>
      <point x="202" y="90"/>
      <point x="103" y="68" type="curve" smooth="yes"/>
      <point x="33" y="52" type="line"/>
      <point x="33" y="0" type="line"/>
      <point x="225" y="0" type="line" smooth="yes"/>
      <point x="352" y="0"/>
      <point x="603" y="601"/>
    </contour>
    <contour>
      <point x="547" y="1232" type="line"/>
      <point x="1370" y="1232" type="line"/>
      <point x="960" y="661" type="line"/>
    </contour>
  </outline>
</glyph>
<glyph name="ze-cy.sc" format="1">
  <advance width="1123"/>
  <outline>
    <contour>
      <point x="563" y="1263" type="move" name="top"/>
    </contour>
    <contour>
      <point x="563" y="0" type="move" name="bottom"/>
    </contour>
    <contour>
      <point x="159" y="1246" type="curve"/>
      <point x="174" y="1009" type="line"/>
      <point x="272" y="1009" type="line"/>
      <point x="304" y="1154" type="line"/>
      <point x="333" y="1207"/>
      <point x="420" y="1236"/>
      <point x="529" y="1236" type="curve" smooth="yes"/>
      <point x="691" y="1236"/>
      <point x="801" y="1169"/>
      <point x="801" y="988" type="curve" smooth="yes"/>
      <point x="801" y="796"/>
      <point x="637" y="691"/>
      <point x="485" y="691" type="curve" smooth="yes"/>
      <point x="378" y="691" type="line"/>
      <point x="378" y="630" type="line"/>
      <point x="508" y="630" type="line" smooth="yes"/>
      <point x="767" y="630"/>
      <point x="830" y="488"/>
      <point x="830" y="356" type="curve" smooth="yes"/>
      <point x="830" y="148"/>
      <point x="734" y="69"/>
      <point x="565" y="69" type="curve" smooth="yes"/>
      <point x="441" y="69"/>
      <point x="354" y="86"/>
      <point x="302" y="112" type="curve"/>
      <point x="253" y="312" type="line"/>
      <point x="181" y="312" type="line"/>
      <point x="151" y="52" type="line"/>
      <point x="215" y="21"/>
      <point x="350" y="-10"/>
      <point x="525" y="-10" type="curve" smooth="yes"/>
      <point x="868" y="-10"/>
      <point x="1010" y="134"/>
      <point x="1010" y="369" type="curve" smooth="yes"/>
      <point x="1010" y="537"/>
      <point x="893" y="678"/>
      <point x="659" y="682" type="curve"/>
      <point x="815" y="712"/>
      <point x="969" y="822"/>
      <point x="969" y="1016" type="curve" smooth="yes"/>
      <point x="969" y="1216"/>
      <point x="800" y="1306"/>
      <point x="509" y="1306" type="curve" smooth="yes"/>
      <point x="373" y="1306"/>
      <point x="235" y="1254"/>
    </contour>
  </outline>
</glyph>
<glyph name="zhe-cy.sc" format="1">
  <advance width="1912"/>
  <outline>
    <contour>
      <point x="956" y="1263" type="move" name="top"/>
    </contour>
    <contour>
      <point x="1862" y="0" type="move" name="bottomright"/>
    </contour>
    <contour>
      <point x="1305" y="645" type="curve"/>
      <point x="1718" y="1228" type="line"/>
      <point x="1858" y="1242" type="line"/>
      <point x="1858" y="1292" type="line"/>
      <point x="1433" y="1292" type="line"/>
      <point x="1433" y="1242" type="line"/>
      <point x="1582" y="1224" type="line"/>
      <point x="1201" y="661" type="line"/>
      <point x="1031" y="661" type="line"/>
      <point x="1031" y="1227" type="line"/>
      <point x="1189" y="1242" type="line"/>
      <point x="1189" y="1292" type="line"/>
      <point x="729" y="1292" type="line"/>
      <point x="729" y="1242" type="line"/>
      <point x="883" y="1227" type="line"/>
      <point x="883" y="661" type="line"/>
      <point x="713" y="661" type="line"/>
      <point x="328" y="1227" type="line"/>
      <point x="479" y="1242" type="line"/>
      <point x="479" y="1292" type="line"/>
      <point x="54" y="1292" type="line"/>
      <point x="54" y="1242" type="line"/>
      <point x="194" y="1228" type="line"/>
      <point x="605" y="652" type="line"/>
      <point x="433" y="576"/>
      <point x="206" y="88"/>
      <point x="105" y="68" type="curve" smooth="yes"/>
      <point x="31" y="52" type="line"/>
      <point x="31" y="0" type="line"/>
      <point x="216" y="0" type="line" smooth="yes"/>
      <point x="343" y="0"/>
      <point x="601" y="601"/>
      <point x="749" y="601" type="curve" smooth="yes"/>
      <point x="883" y="601" type="line"/>
      <point x="883" y="68" type="line"/>
      <point x="729" y="52" type="line"/>
      <point x="729" y="0" type="line"/>
      <point x="1191" y="0" type="line"/>
      <point x="1191" y="53" type="line"/>
      <point x="1031" y="68" type="line"/>
      <point x="1031" y="601" type="line"/>
      <point x="1163" y="601" type="line" smooth="yes"/>
      <point x="1313" y="601"/>
      <point x="1569" y="0"/>
      <point x="1696" y="0" type="curve"/>
      <point x="1883" y="0" type="line"/>
      <point x="1883" y="52" type="line"/>
      <point x="1807" y="68" type="line" smooth="yes"/>
      <point x="1706" y="88"/>
      <point x="1477" y="569"/>
    </contour>
  </outline>
</glyph>
<glyph name="zhedescender-cy.sc" format="1">
  <advance width="1913"/>
  <outline>
    <contour>
      <point x="1306" y="649" type="curve"/>
      <point x="1718" y="1228" type="line"/>
      <point x="1858" y="1242" type="line"/>
      <point x="1858" y="1292" type="line"/>
      <point x="1433" y="1292" type="line"/>
      <point x="1433" y="1242" type="line"/>
      <point x="1582" y="1224" type="line"/>
      <point x="1201" y="661" type="line"/>
      <point x="1031" y="661" type="line"/>
      <point x="1031" y="1227" type="line"/>
      <point x="1189" y="1242" type="line"/>
      <point x="1189" y="1292" type="line"/>
      <point x="729" y="1292" type="line"/>
      <point x="729" y="1242" type="line"/>
      <point x="883" y="1227" type="line"/>
      <point x="883" y="661" type="line"/>
      <point x="713" y="661" type="line"/>
      <point x="328" y="1227" type="line"/>
      <point x="479" y="1242" type="line"/>
      <point x="479" y="1292" type="line"/>
      <point x="54" y="1292" type="line"/>
      <point x="54" y="1242" type="line"/>
      <point x="194" y="1228" type="line"/>
      <point x="605" y="652" type="line"/>
      <point x="433" y="576"/>
      <point x="200" y="90"/>
      <point x="101" y="68" type="curve" smooth="yes"/>
      <point x="31" y="52" type="line"/>
      <point x="31" y="0" type="line"/>
      <point x="224" y="0" type="line" smooth="yes"/>
      <point x="351" y="0"/>
      <point x="601" y="601"/>
      <point x="749" y="601" type="curve" smooth="yes"/>
      <point x="883" y="601" type="line"/>
      <point x="883" y="68" type="line"/>
      <point x="729" y="52" type="line"/>
      <point x="729" y="0" type="line"/>
      <point x="1191" y="0" type="line"/>
      <point x="1191" y="53" type="line"/>
      <point x="1031" y="68" type="line"/>
      <point x="1031" y="601" type="line"/>
      <point x="1163" y="601" type="line" smooth="yes"/>
      <point x="1313" y="601"/>
      <point x="1563" y="0"/>
      <point x="1688" y="0" type="curve" smooth="yes"/>
      <point x="1754" y="0" type="line"/>
      <point x="1762" y="-7"/>
      <point x="1771" y="-272"/>
      <point x="1771" y="-292" type="curve"/>
      <point x="1873" y="-292" type="line"/>
      <point x="1877" y="-293"/>
      <point x="1921" y="123"/>
      <point x="1921" y="68" type="curve"/>
      <point x="1809" y="68" type="line"/>
      <point x="1708" y="103"/>
      <point x="1479" y="573"/>
    </contour>
  </outline>
</glyph>
